M48
; DRILL file KiCad 10.0.4 date 2026-07-09T20:20:09
; FORMAT={-:-/ absolute / metric / decimal}
; #@! TF.CreationDate,2026-07-09T20:20:09+03:00
; #@! TF.GenerationSoftware,Kicad,Pcbnew,10.0.4
; #@! TF.FileFunction,Plated,1,2,PTH
FMAT,2
METRIC
; #@! TA.AperFunction,Plated,PTH,ViaDrill
T1C0.300
; #@! TA.AperFunction,Plated,PTH,ComponentDrill
T2C0.600
; #@! TA.AperFunction,Plated,PTH,ComponentDrill
T3C0.800
; #@! TA.AperFunction,Plated,PTH,ComponentDrill
T4C1.000
; #@! TA.AperFunction,Plated,PTH,ComponentDrill
T5C1.200
; #@! TA.AperFunction,Plated,PTH,ComponentDrill
T6C3.500
%
G90
G05
T1
X77.5Y-63.25
X77.75Y-54.25
X81.0Y-56.5
X81.0Y-62.0
X81.25Y-63.25
X82.0Y-54.5
X82.0Y-57.75
X82.0Y-58.75
X82.0Y-59.75
X97.25Y-130.5
X101.5Y-130.5
T3
X75.0Y-73.0
X75.0Y-83.16
X83.0Y-73.0
X83.0Y-83.16
X97.13Y-128.25
X99.67Y-128.25
X102.21Y-128.25
X104.75Y-128.25
X157.25Y-92.75
X157.25Y-102.91
T4
X93.99Y-41.01
X93.99Y-43.55
X93.99Y-46.09
X93.99Y-48.63
X93.99Y-51.17
X93.99Y-53.71
X93.99Y-58.79
X93.99Y-61.33
X93.99Y-63.87
X93.99Y-66.41
X93.99Y-68.95
X93.99Y-71.49
X93.99Y-74.03
X93.99Y-76.57
X142.25Y-41.01
X142.25Y-43.55
X142.25Y-46.09
X142.25Y-48.63
X142.25Y-51.17
X142.25Y-53.71
X142.25Y-56.25
X142.25Y-58.79
X142.25Y-62.85
X142.25Y-65.39
X142.25Y-67.93
X142.25Y-70.47
X142.25Y-73.01
X142.25Y-75.55
X142.25Y-78.09
X142.25Y-80.63
X142.25Y-83.17
X142.25Y-85.71
T5
X133.75Y-133.25
X138.75Y-133.25
X143.75Y-133.25
X165.749Y-45.501
X165.749Y-48.041
X165.749Y-50.581
X165.749Y-53.121
X165.749Y-55.661
X165.749Y-58.201
X165.749Y-60.741
X165.749Y-63.281
X165.749Y-65.821
X165.749Y-68.361
X165.749Y-70.901
X165.749Y-73.441
X165.749Y-75.981
X165.749Y-78.521
X165.749Y-81.061
X165.749Y-83.601
T6
X166.75Y-38.0
X166.75Y-153.001
X203.75Y-38.0
X203.75Y-153.001
T2
G00X77.75Y-54.93
M15
G01X77.15Y-54.93
M16
G05
G00X77.75Y-63.57
M15
G01X77.15Y-63.57
M16
G05
G00X81.55Y-54.93
M15
G01X80.95Y-54.93
M16
G05
G00X81.55Y-63.57
M15
G01X80.95Y-63.57
M16
G05
M30
