%TF.GenerationSoftware,KiCad,Pcbnew,10.0.4*%
%TF.CreationDate,2026-07-09T20:20:11+03:00*%
%TF.ProjectId,weather-tracker,77656174-6865-4722-9d74-7261636b6572,rev?*%
%TF.SameCoordinates,Original*%
%TF.FileFunction,Copper,L2,Bot*%
%TF.FilePolarity,Positive*%
%FSLAX46Y46*%
G04 Gerber Fmt 4.6, Leading zero omitted, Abs format (unit mm)*
G04 Created by KiCad (PCBNEW 10.0.4) date 2026-07-09 20:20:11*
%MOMM*%
%LPD*%
G01*
G04 APERTURE LIST*
%TA.AperFunction,ComponentPad*%
%ADD10C,1.600000*%
%TD*%
%TA.AperFunction,ComponentPad*%
%ADD11C,4.000000*%
%TD*%
%TA.AperFunction,ComponentPad*%
%ADD12R,2.600000X1.800000*%
%TD*%
%TA.AperFunction,ComponentPad*%
%ADD13O,2.600000X1.800000*%
%TD*%
%TA.AperFunction,ComponentPad*%
%ADD14R,1.800000X1.800000*%
%TD*%
%TA.AperFunction,ComponentPad*%
%ADD15C,1.800000*%
%TD*%
%TA.AperFunction,ComponentPad*%
%ADD16R,1.600000X1.600000*%
%TD*%
%TA.AperFunction,ComponentPad*%
%ADD17O,1.600000X1.600000*%
%TD*%
%TA.AperFunction,ComponentPad*%
%ADD18R,1.500000X1.500000*%
%TD*%
%TA.AperFunction,ComponentPad*%
%ADD19C,1.500000*%
%TD*%
%TA.AperFunction,ComponentPad*%
%ADD20O,1.700000X1.100000*%
%TD*%
%TA.AperFunction,ViaPad*%
%ADD21C,0.600000*%
%TD*%
%TA.AperFunction,Conductor*%
%ADD22C,0.200000*%
%TD*%
%TA.AperFunction,Conductor*%
%ADD23C,0.800000*%
%TD*%
G04 APERTURE END LIST*
D10*
%TO.P,330\u03A9,1*%
%TO.N,Net-(DS1-LEDA)*%
X157250000Y-102910000D03*
%TO.P,330\u03A9,2*%
%TO.N,5V*%
X157250000Y-92750000D03*
%TD*%
D11*
%TO.P,LCD1602A,*%
%TO.N,*%
X166749820Y-153001040D03*
X203750000Y-153001040D03*
X166749820Y-38000000D03*
X203750000Y-38000000D03*
D12*
%TO.P,LCD1602A,1,LEDK_1*%
%TO.N,GND*%
X165749060Y-83600620D03*
D13*
%TO.P,LCD1602A,2,LEDA_2*%
%TO.N,Net-(DS1-LEDA)*%
X165749060Y-81060620D03*
%TO.P,LCD1602A,3,VSS_3*%
%TO.N,GND*%
X165749060Y-78520620D03*
%TO.P,LCD1602A,4,VDD_4*%
%TO.N,5V*%
X165749060Y-75980620D03*
%TO.P,LCD1602A,5,Vo_5*%
%TO.N,/IO/V0*%
X165749060Y-73440620D03*
%TO.P,LCD1602A,6,RS_6*%
%TO.N,12*%
X165749060Y-70900620D03*
%TO.P,LCD1602A,7,R/~{W}_7*%
%TO.N,GND*%
X165749060Y-68360620D03*
%TO.P,LCD1602A,8,E_8*%
%TO.N,11*%
X165749060Y-65820620D03*
%TO.P,LCD1602A,9,DB0_9*%
%TO.N,unconnected-(DS1-DB0-Pad9)*%
X165749060Y-63280620D03*
%TO.P,LCD1602A,10,DB1_10*%
%TO.N,unconnected-(DS1-DB1-Pad10)*%
X165749060Y-60740620D03*
%TO.P,LCD1602A,11,DB2_11*%
%TO.N,unconnected-(DS1-DB2-Pad11)*%
X165749060Y-58200620D03*
%TO.P,LCD1602A,12,DB3_12*%
%TO.N,unconnected-(DS1-DB3-Pad12)*%
X165749060Y-55660620D03*
%TO.P,LCD1602A,13,DB4_13*%
%TO.N,5*%
X165749060Y-53120620D03*
%TO.P,LCD1602A,14,DB5_14*%
%TO.N,4*%
X165749060Y-50580620D03*
%TO.P,LCD1602A,15,DB6_15*%
%TO.N,3*%
X165749060Y-48040620D03*
%TO.P,LCD1602A,16,DB7_16*%
%TO.N,2*%
X165749060Y-45500620D03*
%TD*%
D14*
%TO.P,Potansiyometre,1,1_1*%
%TO.N,5V*%
X133750000Y-133250000D03*
D15*
%TO.P,Potansiyometre,2,2_2*%
%TO.N,/IO/V0*%
X138750000Y-133250000D03*
%TO.P,Potansiyometre,3,3_3*%
%TO.N,GND*%
X143750000Y-133250000D03*
%TD*%
D10*
%TO.P,5.1k\u03A9,1*%
%TO.N,Net-(J1-CC1)*%
X83000000Y-73000000D03*
%TO.P,5.1k\u03A9,2*%
%TO.N,GND*%
X83000000Y-83160000D03*
%TD*%
D16*
%TO.P,A1,1,NC_1*%
%TO.N,unconnected-(A1-NC-Pad1)*%
X93990000Y-76570000D03*
D17*
%TO.P,A1,2,IOREF_2*%
%TO.N,unconnected-(A1-IOREF-Pad2)*%
X93990000Y-74030000D03*
%TO.P,A1,3,~{RESET}_3*%
%TO.N,unconnected-(A1-~{RESET}-Pad3)*%
X93990000Y-71490000D03*
%TO.P,A1,4,3V3_4*%
%TO.N,unconnected-(A1-3V3-Pad4)*%
X93990000Y-68950000D03*
%TO.P,A1,5,+5V_5*%
%TO.N,5V*%
X93990000Y-66410000D03*
%TO.P,A1,6,GND_6*%
%TO.N,GND*%
X93990000Y-63870000D03*
%TO.P,A1,7,GND_7*%
X93990000Y-61330000D03*
%TO.P,A1,8,VIN_8*%
%TO.N,VIN*%
X93990000Y-58790000D03*
%TO.P,A1,9,A0_9*%
%TO.N,unconnected-(A1-A0-Pad9)*%
X93990000Y-53710000D03*
%TO.P,A1,10,A1_10*%
%TO.N,unconnected-(A1-A1-Pad10)*%
X93990000Y-51170000D03*
%TO.P,A1,11,A2_11*%
%TO.N,unconnected-(A1-A2-Pad11)*%
X93990000Y-48630000D03*
%TO.P,A1,12,A3_12*%
%TO.N,unconnected-(A1-A3-Pad12)*%
X93990000Y-46090000D03*
%TO.P,A1,13,SDA/A4_13*%
%TO.N,unconnected-(A1-SDA{slash}A4-Pad13)*%
X93990000Y-43550000D03*
%TO.P,A1,14,SCL/A5_14*%
%TO.N,unconnected-(A1-SCL{slash}A5-Pad14)*%
X93990000Y-41010000D03*
%TO.P,A1,15,D0/RX_15*%
%TO.N,unconnected-(A1-D0{slash}RX-Pad15)*%
X142250000Y-41010000D03*
%TO.P,A1,16,D1/TX_16*%
%TO.N,unconnected-(A1-D1{slash}TX-Pad16)*%
X142250000Y-43550000D03*
%TO.P,A1,17,D2_17*%
%TO.N,2*%
X142250000Y-46090000D03*
%TO.P,A1,18,D3_18*%
%TO.N,3*%
X142250000Y-48630000D03*
%TO.P,A1,19,D4_19*%
%TO.N,4*%
X142250000Y-51170000D03*
%TO.P,A1,20,D5_20*%
%TO.N,5*%
X142250000Y-53710000D03*
%TO.P,A1,21,D6_21*%
%TO.N,unconnected-(A1-D6-Pad21)*%
X142250000Y-56250000D03*
%TO.P,A1,22,D7_22*%
%TO.N,unconnected-(A1-D7-Pad22)*%
X142250000Y-58790000D03*
%TO.P,A1,23,D8_23*%
%TO.N,unconnected-(A1-D8-Pad23)*%
X142250000Y-62850000D03*
%TO.P,A1,24,D9_24*%
%TO.N,unconnected-(A1-D9-Pad24)*%
X142250000Y-65390000D03*
%TO.P,A1,25,D10_25*%
%TO.N,unconnected-(A1-D10-Pad25)*%
X142250000Y-67930000D03*
%TO.P,A1,26,D11_26*%
%TO.N,11*%
X142250000Y-70470000D03*
%TO.P,A1,27,D12_27*%
%TO.N,12*%
X142250000Y-73010000D03*
%TO.P,A1,28,D13_28*%
%TO.N,13*%
X142250000Y-75550000D03*
%TO.P,A1,29,GND_29*%
%TO.N,GND*%
X142250000Y-78090000D03*
%TO.P,A1,30,AREF_30*%
%TO.N,unconnected-(A1-AREF-Pad30)*%
X142250000Y-80630000D03*
%TO.P,A1,31,SDA/A4_31*%
%TO.N,unconnected-(A1-SDA{slash}A4-Pad31)*%
X142250000Y-83170000D03*
%TO.P,A1,32,SCL/A5_32*%
%TO.N,unconnected-(A1-SCL{slash}A5-Pad32)*%
X142250000Y-85710000D03*
%TD*%
D18*
%TO.P,DHT11,1,VDD_1*%
%TO.N,5V*%
X97130000Y-128250000D03*
D19*
%TO.P,DHT11,2,DATA_2*%
%TO.N,13*%
X99670000Y-128250000D03*
%TO.P,DHT11,3,NC_3*%
%TO.N,unconnected-(U1-NC-Pad3)*%
X102210000Y-128250000D03*
%TO.P,DHT11,4,GND_4*%
%TO.N,GND*%
X104750000Y-128250000D03*
%TD*%
D10*
%TO.P,5.1k\u03A9,1*%
%TO.N,Net-(J1-CC2)*%
X75000000Y-73000000D03*
%TO.P,5.1k\u03A9,2*%
%TO.N,GND*%
X75000000Y-83160000D03*
%TD*%
D20*
%TO.P,USB4125,SH,SHIELD_SH*%
%TO.N,GND*%
X81250000Y-54930000D03*
X77450000Y-54930000D03*
X81250000Y-63570000D03*
X77450000Y-63570000D03*
%TD*%
D21*
%TO.N,Net-(J1-CC1)*%
X82000000Y-58750000D03*
%TO.N,GND*%
X97250000Y-130500000D03*
X101500000Y-130500000D03*
X77500000Y-63250000D03*
X81000000Y-56500000D03*
X81250000Y-63250000D03*
X81000000Y-62000000D03*
X82000000Y-54500000D03*
X77750000Y-54250000D03*
%TO.N,VIN*%
X82000000Y-57750000D03*
%TO.N,Net-(J1-CC2)*%
X82000000Y-59750000D03*
%TD*%
%TO.N,Net-(J1-CC1)*%
D22*
X86250000Y-67000000D02*
X83000000Y-70250000D01*
X83500000Y-58750000D02*
X86250000Y-61500000D01*
X82000000Y-58750000D02*
X83500000Y-58750000D01*
X86250000Y-61500000D02*
X86250000Y-67000000D01*
X83000000Y-70250000D02*
X83000000Y-73000000D01*
%TO.N,GND*%
X104750000Y-128250000D02*
X102500000Y-130500000D01*
X102500000Y-130500000D02*
X101500000Y-130500000D01*
%TO.N,5V*%
D23*
X90840000Y-66410000D02*
X87500000Y-69750000D01*
X152000000Y-137250000D02*
X152000000Y-95750000D01*
X94250000Y-128250000D02*
X97130000Y-128250000D01*
X97130000Y-128250000D02*
X102130000Y-133250000D01*
X137500000Y-141500000D02*
X137750000Y-141750000D01*
X87500000Y-69750000D02*
X87500000Y-121500000D01*
X133750000Y-137750000D02*
X133750000Y-133250000D01*
X147500000Y-141750000D02*
X152000000Y-137250000D01*
X87500000Y-121500000D02*
X94250000Y-128250000D01*
X164769380Y-75980620D02*
X157250000Y-83500000D01*
X102130000Y-133250000D02*
X133750000Y-133250000D01*
X137750000Y-141750000D02*
X147500000Y-141750000D01*
X152000000Y-95750000D02*
X155000000Y-92750000D01*
X93990000Y-66410000D02*
X90840000Y-66410000D01*
X137500000Y-141500000D02*
X133750000Y-137750000D01*
X165749060Y-75980620D02*
X164769380Y-75980620D01*
X155000000Y-92750000D02*
X157250000Y-92750000D01*
X157250000Y-83500000D02*
X157250000Y-92750000D01*
%TO.N,13*%
D22*
X145790000Y-113460000D02*
X114460000Y-113460000D01*
X146500000Y-112750000D02*
X145790000Y-113460000D01*
X114460000Y-113460000D02*
X99670000Y-128250000D01*
X146500000Y-77750000D02*
X146500000Y-112750000D01*
X142250000Y-75550000D02*
X144300000Y-75550000D01*
X144300000Y-75550000D02*
X146500000Y-77750000D01*
%TO.N,Net-(DS1-LEDA)*%
X165049060Y-81060620D02*
X161000000Y-85109680D01*
X159340000Y-102910000D02*
X157250000Y-102910000D01*
X161000000Y-85109680D02*
X161000000Y-101250000D01*
X161000000Y-101250000D02*
X159340000Y-102910000D01*
X165749060Y-81060620D02*
X165049060Y-81060620D01*
%TO.N,VIN*%
D23*
X82000000Y-57750000D02*
X92950000Y-57750000D01*
X92950000Y-57750000D02*
X93990000Y-58790000D01*
%TO.N,2*%
D22*
X165159680Y-46090000D02*
X165749060Y-45500620D01*
X142250000Y-46090000D02*
X165159680Y-46090000D01*
%TO.N,3*%
X142250000Y-48630000D02*
X165159680Y-48630000D01*
X165159680Y-48630000D02*
X165749060Y-48040620D01*
%TO.N,4*%
X142250000Y-51170000D02*
X165159680Y-51170000D01*
X165159680Y-51170000D02*
X165749060Y-50580620D01*
%TO.N,5*%
X142250000Y-53710000D02*
X165159680Y-53710000D01*
X165159680Y-53710000D02*
X165749060Y-53120620D01*
%TO.N,11*%
X142250000Y-70470000D02*
X146899380Y-65820620D01*
X146899380Y-65820620D02*
X165749060Y-65820620D01*
%TO.N,12*%
X142250000Y-73010000D02*
X144359380Y-70900620D01*
X144359380Y-70900620D02*
X165749060Y-70900620D01*
%TO.N,Net-(J1-CC2)*%
X84250000Y-65500000D02*
X76750000Y-73000000D01*
X82000000Y-59750000D02*
X84250000Y-62000000D01*
X84250000Y-62000000D02*
X84250000Y-65500000D01*
X76750000Y-73000000D02*
X75000000Y-73000000D01*
%TO.N,/IO/V0*%
X165749060Y-73440620D02*
X160309380Y-73440620D01*
X148500000Y-85250000D02*
X148500000Y-123500000D01*
X160309380Y-73440620D02*
X148500000Y-85250000D01*
X148500000Y-123500000D02*
X138750000Y-133250000D01*
%TD*%
%TA.AperFunction,Conductor*%
%TO.N,GND*%
G36*
X164074263Y-71520805D02*
G01*
X164117708Y-71568824D01*
X164151245Y-71634643D01*
X164280812Y-71812978D01*
X164280816Y-71812983D01*
X164436696Y-71968863D01*
X164436701Y-71968867D01*
X164576314Y-72070302D01*
X164618980Y-72125632D01*
X164624959Y-72195245D01*
X164592353Y-72257040D01*
X164576314Y-72270938D01*
X164436701Y-72372372D01*
X164436696Y-72372376D01*
X164280816Y-72528256D01*
X164280812Y-72528261D01*
X164151245Y-72706596D01*
X164117708Y-72772416D01*
X164069734Y-72823211D01*
X164007224Y-72840120D01*
X160230320Y-72840120D01*
X160189399Y-72851084D01*
X160189399Y-72851085D01*
X160152131Y-72861071D01*
X160077594Y-72881043D01*
X160077589Y-72881046D01*
X159940670Y-72960095D01*
X159940662Y-72960101D01*
X148019481Y-84881282D01*
X148019479Y-84881285D01*
X147969361Y-84968094D01*
X147969359Y-84968096D01*
X147940425Y-85018209D01*
X147940424Y-85018210D01*
X147924544Y-85077472D01*
X147899499Y-85170943D01*
X147899499Y-85170945D01*
X147899499Y-85339046D01*
X147899500Y-85339059D01*
X147899500Y-123199902D01*
X147879815Y-123266941D01*
X147863181Y-123287583D01*
X139274202Y-131876561D01*
X139212879Y-131910046D01*
X139148203Y-131906811D01*
X139123584Y-131898812D01*
X139077952Y-131883985D01*
X138969086Y-131866742D01*
X138860222Y-131849500D01*
X138639778Y-131849500D01*
X138567201Y-131860995D01*
X138422047Y-131883985D01*
X138212396Y-131952103D01*
X138212393Y-131952104D01*
X138015974Y-132052187D01*
X137837641Y-132181752D01*
X137837636Y-132181756D01*
X137681756Y-132337636D01*
X137681752Y-132337641D01*
X137552187Y-132515974D01*
X137452104Y-132712393D01*
X137452103Y-132712396D01*
X137383985Y-132922047D01*
X137349500Y-133139778D01*
X137349500Y-133360221D01*
X137383985Y-133577952D01*
X137452103Y-133787603D01*
X137452104Y-133787606D01*
X137520122Y-133921096D01*
X137552183Y-133984019D01*
X137552187Y-133984025D01*
X137681752Y-134162358D01*
X137681756Y-134162363D01*
X137837636Y-134318243D01*
X137837641Y-134318247D01*
X137939606Y-134392328D01*
X138015978Y-134447815D01*
X138144375Y-134513237D01*
X138212393Y-134547895D01*
X138212396Y-134547896D01*
X138317221Y-134581955D01*
X138422049Y-134616015D01*
X138639778Y-134650500D01*
X138639779Y-134650500D01*
X138860221Y-134650500D01*
X138860222Y-134650500D01*
X139077951Y-134616015D01*
X139287606Y-134547895D01*
X139484022Y-134447815D01*
X139662365Y-134318242D01*
X139818242Y-134162365D01*
X139947815Y-133984022D01*
X140047895Y-133787606D01*
X140116015Y-133577951D01*
X140150500Y-133360222D01*
X140150500Y-133139778D01*
X140116015Y-132922049D01*
X140093188Y-132851794D01*
X140091193Y-132781953D01*
X140123436Y-132725797D01*
X148868713Y-123980521D01*
X148868716Y-123980520D01*
X148980520Y-123868716D01*
X149030639Y-123781904D01*
X149059577Y-123731785D01*
X149100500Y-123579058D01*
X149100500Y-123420943D01*
X149100500Y-85550097D01*
X149120185Y-85483058D01*
X149136819Y-85462416D01*
X160521796Y-74077439D01*
X160583119Y-74043954D01*
X160609477Y-74041120D01*
X164007224Y-74041120D01*
X164074263Y-74060805D01*
X164117708Y-74108824D01*
X164151245Y-74174643D01*
X164280812Y-74352978D01*
X164280816Y-74352983D01*
X164436696Y-74508863D01*
X164436701Y-74508867D01*
X164576314Y-74610302D01*
X164618980Y-74665632D01*
X164624959Y-74735245D01*
X164592353Y-74797040D01*
X164576314Y-74810938D01*
X164436701Y-74912372D01*
X164436696Y-74912376D01*
X164280816Y-75068256D01*
X164280812Y-75068261D01*
X164151245Y-75246596D01*
X164078446Y-75389470D01*
X164055643Y-75420855D01*
X156550537Y-82925961D01*
X156511064Y-82985039D01*
X156511063Y-82985040D01*
X156451985Y-83073455D01*
X156418046Y-83155393D01*
X156384106Y-83237330D01*
X156384103Y-83237341D01*
X156377139Y-83272354D01*
X156349500Y-83411304D01*
X156349500Y-91725500D01*
X156329815Y-91792539D01*
X156277011Y-91838294D01*
X156225500Y-91849500D01*
X154911304Y-91849500D01*
X154737339Y-91884103D01*
X154737323Y-91884108D01*
X154621453Y-91932102D01*
X154621454Y-91932103D01*
X154573454Y-91951986D01*
X154425965Y-92050535D01*
X154425961Y-92050538D01*
X151300538Y-95175960D01*
X151300537Y-95175961D01*
X151261064Y-95235039D01*
X151261063Y-95235040D01*
X151201985Y-95323455D01*
X151168046Y-95405393D01*
X151134106Y-95487329D01*
X151134103Y-95487341D01*
X151099500Y-95661303D01*
X151099500Y-136825638D01*
X151079815Y-136892677D01*
X151063181Y-136913319D01*
X147163319Y-140813181D01*
X147101996Y-140846666D01*
X147075638Y-140849500D01*
X138174362Y-140849500D01*
X138107323Y-140829815D01*
X138086681Y-140813181D01*
X134686819Y-137413319D01*
X134653334Y-137351996D01*
X134650500Y-137325638D01*
X134650500Y-134766976D01*
X134670185Y-134699937D01*
X134722989Y-134654182D01*
X134750135Y-134646736D01*
X134749932Y-134645876D01*
X134757479Y-134644092D01*
X134757481Y-134644091D01*
X134757483Y-134644091D01*
X134892331Y-134593796D01*
X135007546Y-134507546D01*
X135093796Y-134392331D01*
X135144091Y-134257483D01*
X135150500Y-134197873D01*
X135150499Y-132302128D01*
X135144091Y-132242517D01*
X135121429Y-132181758D01*
X135093797Y-132107671D01*
X135093793Y-132107664D01*
X135007547Y-131992455D01*
X135007544Y-131992452D01*
X134892335Y-131906206D01*
X134892328Y-131906202D01*
X134757482Y-131855908D01*
X134757483Y-131855908D01*
X134697883Y-131849501D01*
X134697881Y-131849500D01*
X134697873Y-131849500D01*
X134697864Y-131849500D01*
X132802129Y-131849500D01*
X132802123Y-131849501D01*
X132742516Y-131855908D01*
X132607671Y-131906202D01*
X132607664Y-131906206D01*
X132492455Y-131992452D01*
X132492452Y-131992455D01*
X132406206Y-132107664D01*
X132406202Y-132107671D01*
X132355908Y-132242517D01*
X132354126Y-132250062D01*
X132351853Y-132249525D01*
X132329571Y-132303312D01*
X132272177Y-132343157D01*
X132233024Y-132349500D01*
X102554362Y-132349500D01*
X102487323Y-132329815D01*
X102466681Y-132313181D01*
X99841728Y-129688228D01*
X99808243Y-129626905D01*
X99813227Y-129557213D01*
X99855099Y-129501280D01*
X99910012Y-129478074D01*
X99938261Y-129473599D01*
X99962826Y-129469709D01*
X100150025Y-129408884D01*
X100325405Y-129319524D01*
X100484646Y-129203828D01*
X100623828Y-129064646D01*
X100739524Y-128905405D01*
X100828884Y-128730025D01*
X100829515Y-128728787D01*
X100877489Y-128677990D01*
X100945310Y-128661195D01*
X101011445Y-128683732D01*
X101050485Y-128728787D01*
X101140474Y-128905403D01*
X101198324Y-128985025D01*
X101256172Y-129064646D01*
X101395354Y-129203828D01*
X101554595Y-129319524D01*
X101629214Y-129357544D01*
X101729970Y-129408882D01*
X101729972Y-129408882D01*
X101729975Y-129408884D01*
X101830317Y-129441487D01*
X101917173Y-129469709D01*
X102111578Y-129500500D01*
X102111583Y-129500500D01*
X102308422Y-129500500D01*
X102502826Y-129469709D01*
X102582574Y-129443797D01*
X102690025Y-129408884D01*
X102865405Y-129319524D01*
X103024646Y-129203828D01*
X103163828Y-129064646D01*
X103279524Y-128905405D01*
X103368884Y-128730025D01*
X103429709Y-128542826D01*
X103460500Y-128348422D01*
X103460500Y-128151577D01*
X103429709Y-127957173D01*
X103368882Y-127769970D01*
X103279523Y-127594594D01*
X103275183Y-127588620D01*
X103163828Y-127435354D01*
X103024646Y-127296172D01*
X102865405Y-127180476D01*
X102795750Y-127144985D01*
X102690029Y-127091117D01*
X102502826Y-127030290D01*
X102308422Y-126999500D01*
X102308417Y-126999500D01*
X102111583Y-126999500D01*
X102111581Y-126999500D01*
X102082333Y-127004132D01*
X102013040Y-126995176D01*
X101959588Y-126950178D01*
X101938950Y-126883427D01*
X101957676Y-126816113D01*
X101975251Y-126793982D01*
X114672417Y-114096819D01*
X114733740Y-114063334D01*
X114760098Y-114060500D01*
X145703331Y-114060500D01*
X145703347Y-114060501D01*
X145710943Y-114060501D01*
X145869054Y-114060501D01*
X145869057Y-114060501D01*
X146021785Y-114019577D01*
X146071904Y-113990639D01*
X146158716Y-113940520D01*
X146270520Y-113828716D01*
X146270520Y-113828714D01*
X146280728Y-113818507D01*
X146280729Y-113818504D01*
X146980520Y-113118716D01*
X147059577Y-112981784D01*
X147100501Y-112829057D01*
X147100501Y-112670942D01*
X147100501Y-112663347D01*
X147100500Y-112663329D01*
X147100500Y-77839059D01*
X147100501Y-77839046D01*
X147100501Y-77670945D01*
X147100501Y-77670943D01*
X147059577Y-77518215D01*
X147001644Y-77417873D01*
X146980520Y-77381284D01*
X146868716Y-77269480D01*
X146868713Y-77269478D01*
X144787590Y-75188355D01*
X144787588Y-75188352D01*
X144668717Y-75069481D01*
X144668716Y-75069480D01*
X144581904Y-75019360D01*
X144581904Y-75019359D01*
X144581900Y-75019358D01*
X144531785Y-74990423D01*
X144379057Y-74949499D01*
X144220943Y-74949499D01*
X144213347Y-74949499D01*
X144213331Y-74949500D01*
X143479602Y-74949500D01*
X143412563Y-74929815D01*
X143369117Y-74881795D01*
X143362287Y-74868390D01*
X143362285Y-74868387D01*
X143362284Y-74868385D01*
X143241971Y-74702786D01*
X143097213Y-74558028D01*
X142931614Y-74437715D01*
X142925006Y-74434348D01*
X142838917Y-74390483D01*
X142788123Y-74342511D01*
X142771328Y-74274690D01*
X142793865Y-74208555D01*
X142838917Y-74169516D01*
X142931610Y-74122287D01*
X142952770Y-74106913D01*
X143097213Y-74001971D01*
X143097215Y-74001968D01*
X143097219Y-74001966D01*
X143241966Y-73857219D01*
X143241968Y-73857215D01*
X143241971Y-73857213D01*
X143337690Y-73725465D01*
X143362287Y-73691610D01*
X143455220Y-73509219D01*
X143518477Y-73314534D01*
X143550500Y-73112352D01*
X143550500Y-72907648D01*
X143527356Y-72761523D01*
X143518478Y-72705472D01*
X143518477Y-72705471D01*
X143518477Y-72705466D01*
X143513825Y-72691151D01*
X143511832Y-72621312D01*
X143544075Y-72565158D01*
X144571797Y-71537439D01*
X144633120Y-71503954D01*
X144659478Y-71501120D01*
X164007224Y-71501120D01*
X164074263Y-71520805D01*
G37*
%TD.AperFunction*%
%TA.AperFunction,Conductor*%
G36*
X209442539Y-33770185D02*
G01*
X209488294Y-33822989D01*
X209499500Y-33874500D01*
X209499500Y-157625500D01*
X209479815Y-157692539D01*
X209427011Y-157738294D01*
X209375500Y-157749500D01*
X70374500Y-157749500D01*
X70307461Y-157729815D01*
X70261706Y-157677011D01*
X70250500Y-157625500D01*
X70250500Y-152860608D01*
X164249320Y-152860608D01*
X164249320Y-153141471D01*
X164280762Y-153420534D01*
X164280765Y-153420552D01*
X164343259Y-153694357D01*
X164343263Y-153694369D01*
X164436020Y-153959451D01*
X164557873Y-154212482D01*
X164557875Y-154212485D01*
X164707297Y-154450288D01*
X164882404Y-154669865D01*
X165080995Y-154868456D01*
X165300572Y-155043563D01*
X165538375Y-155192985D01*
X165791412Y-155314841D01*
X165990500Y-155384505D01*
X166056490Y-155407596D01*
X166056502Y-155407600D01*
X166330311Y-155470095D01*
X166330317Y-155470095D01*
X166330325Y-155470097D01*
X166516367Y-155491058D01*
X166609389Y-155501539D01*
X166609392Y-155501540D01*
X166609395Y-155501540D01*
X166890248Y-155501540D01*
X166890249Y-155501539D01*
X167032875Y-155485469D01*
X167169314Y-155470097D01*
X167169319Y-155470096D01*
X167169329Y-155470095D01*
X167443138Y-155407600D01*
X167708228Y-155314841D01*
X167961265Y-155192985D01*
X168199068Y-155043563D01*
X168418645Y-154868456D01*
X168617236Y-154669865D01*
X168792343Y-154450288D01*
X168941765Y-154212485D01*
X169063621Y-153959448D01*
X169156380Y-153694358D01*
X169218875Y-153420549D01*
X169250320Y-153141465D01*
X169250320Y-152860615D01*
X169250319Y-152860608D01*
X201249500Y-152860608D01*
X201249500Y-153141471D01*
X201280942Y-153420534D01*
X201280945Y-153420552D01*
X201343439Y-153694357D01*
X201343443Y-153694369D01*
X201436200Y-153959451D01*
X201558053Y-154212482D01*
X201558055Y-154212485D01*
X201707477Y-154450288D01*
X201882584Y-154669865D01*
X202081175Y-154868456D01*
X202300752Y-155043563D01*
X202538555Y-155192985D01*
X202791592Y-155314841D01*
X202990680Y-155384505D01*
X203056670Y-155407596D01*
X203056682Y-155407600D01*
X203330491Y-155470095D01*
X203330497Y-155470095D01*
X203330505Y-155470097D01*
X203516547Y-155491058D01*
X203609569Y-155501539D01*
X203609572Y-155501540D01*
X203609575Y-155501540D01*
X203890428Y-155501540D01*
X203890429Y-155501539D01*
X204033055Y-155485469D01*
X204169494Y-155470097D01*
X204169499Y-155470096D01*
X204169509Y-155470095D01*
X204443318Y-155407600D01*
X204708408Y-155314841D01*
X204961445Y-155192985D01*
X205199248Y-155043563D01*
X205418825Y-154868456D01*
X205617416Y-154669865D01*
X205792523Y-154450288D01*
X205941945Y-154212485D01*
X206063801Y-153959448D01*
X206156560Y-153694358D01*
X206219055Y-153420549D01*
X206250500Y-153141465D01*
X206250500Y-152860615D01*
X206219055Y-152581531D01*
X206156560Y-152307722D01*
X206063801Y-152042632D01*
X205941945Y-151789595D01*
X205792523Y-151551792D01*
X205617416Y-151332215D01*
X205418825Y-151133624D01*
X205199248Y-150958517D01*
X204961445Y-150809095D01*
X204961442Y-150809093D01*
X204708411Y-150687240D01*
X204443329Y-150594483D01*
X204443317Y-150594479D01*
X204169512Y-150531985D01*
X204169494Y-150531982D01*
X203890431Y-150500540D01*
X203890425Y-150500540D01*
X203609575Y-150500540D01*
X203609568Y-150500540D01*
X203330505Y-150531982D01*
X203330487Y-150531985D01*
X203056682Y-150594479D01*
X203056670Y-150594483D01*
X202791588Y-150687240D01*
X202538557Y-150809093D01*
X202300753Y-150958516D01*
X202081175Y-151133623D01*
X201882583Y-151332215D01*
X201707476Y-151551793D01*
X201558053Y-151789597D01*
X201436200Y-152042628D01*
X201343443Y-152307710D01*
X201343439Y-152307722D01*
X201280945Y-152581527D01*
X201280942Y-152581545D01*
X201249500Y-152860608D01*
X169250319Y-152860608D01*
X169218875Y-152581531D01*
X169156380Y-152307722D01*
X169063621Y-152042632D01*
X168941765Y-151789595D01*
X168792343Y-151551792D01*
X168617236Y-151332215D01*
X168418645Y-151133624D01*
X168199068Y-150958517D01*
X167961265Y-150809095D01*
X167961262Y-150809093D01*
X167708231Y-150687240D01*
X167443149Y-150594483D01*
X167443137Y-150594479D01*
X167169332Y-150531985D01*
X167169314Y-150531982D01*
X166890251Y-150500540D01*
X166890245Y-150500540D01*
X166609395Y-150500540D01*
X166609388Y-150500540D01*
X166330325Y-150531982D01*
X166330307Y-150531985D01*
X166056502Y-150594479D01*
X166056490Y-150594483D01*
X165791408Y-150687240D01*
X165538377Y-150809093D01*
X165300573Y-150958516D01*
X165080995Y-151133623D01*
X164882403Y-151332215D01*
X164707296Y-151551793D01*
X164557873Y-151789597D01*
X164436020Y-152042628D01*
X164343263Y-152307710D01*
X164343259Y-152307722D01*
X164280765Y-152581527D01*
X164280762Y-152581545D01*
X164249320Y-152860608D01*
X70250500Y-152860608D01*
X70250500Y-72897648D01*
X73699500Y-72897648D01*
X73699500Y-73102351D01*
X73731522Y-73304534D01*
X73794781Y-73499223D01*
X73887715Y-73681613D01*
X74008028Y-73847213D01*
X74152786Y-73991971D01*
X74270425Y-74077439D01*
X74318390Y-74112287D01*
X74430706Y-74169515D01*
X74500776Y-74205218D01*
X74500778Y-74205218D01*
X74500781Y-74205220D01*
X74605137Y-74239127D01*
X74695465Y-74268477D01*
X74758602Y-74278477D01*
X74897648Y-74300500D01*
X74897649Y-74300500D01*
X75102351Y-74300500D01*
X75102352Y-74300500D01*
X75304534Y-74268477D01*
X75499219Y-74205220D01*
X75681610Y-74112287D01*
X75779564Y-74041120D01*
X75847213Y-73991971D01*
X75847215Y-73991968D01*
X75847219Y-73991966D01*
X75991966Y-73847219D01*
X75991968Y-73847215D01*
X75991971Y-73847213D01*
X76112284Y-73681614D01*
X76112285Y-73681613D01*
X76112287Y-73681610D01*
X76119117Y-73668204D01*
X76167091Y-73617409D01*
X76229602Y-73600500D01*
X76663331Y-73600500D01*
X76663347Y-73600501D01*
X76670943Y-73600501D01*
X76829054Y-73600501D01*
X76829057Y-73600501D01*
X76981785Y-73559577D01*
X77037809Y-73527231D01*
X77118716Y-73480520D01*
X77230520Y-73368716D01*
X77230520Y-73368714D01*
X77240724Y-73358511D01*
X77240727Y-73358506D01*
X84730520Y-65868716D01*
X84809577Y-65731784D01*
X84850501Y-65579057D01*
X84850501Y-65420942D01*
X84850501Y-65413347D01*
X84850500Y-65413329D01*
X84850500Y-62089060D01*
X84850501Y-62089047D01*
X84850501Y-61920944D01*
X84850501Y-61920943D01*
X84809577Y-61768216D01*
X84798330Y-61748735D01*
X84730524Y-61631290D01*
X84730518Y-61631282D01*
X82834573Y-59735337D01*
X82825712Y-59719110D01*
X82812782Y-59705895D01*
X82802016Y-59675714D01*
X82801088Y-59674014D01*
X82800808Y-59672694D01*
X82800500Y-59671200D01*
X82800500Y-59671158D01*
X82769737Y-59516503D01*
X82767486Y-59511069D01*
X82765109Y-59499538D01*
X82767045Y-59476060D01*
X82764497Y-59452641D01*
X82769863Y-59441884D01*
X82770852Y-59429905D01*
X82785173Y-59411200D01*
X82795691Y-59390122D01*
X82806020Y-59383975D01*
X82813329Y-59374430D01*
X82835492Y-59366436D01*
X82855734Y-59354392D01*
X82875982Y-59351835D01*
X82879055Y-59350727D01*
X82881082Y-59351191D01*
X82886555Y-59350500D01*
X83199903Y-59350500D01*
X83266942Y-59370185D01*
X83287584Y-59386819D01*
X85613181Y-61712416D01*
X85646666Y-61773739D01*
X85649500Y-61800097D01*
X85649500Y-66699902D01*
X85629815Y-66766941D01*
X85613181Y-66787583D01*
X82519481Y-69881282D01*
X82519480Y-69881284D01*
X82474387Y-69959388D01*
X82440423Y-70018215D01*
X82399499Y-70170943D01*
X82399499Y-70170945D01*
X82399499Y-70339046D01*
X82399500Y-70339059D01*
X82399500Y-71770397D01*
X82379815Y-71837436D01*
X82331800Y-71880879D01*
X82318389Y-71887712D01*
X82152786Y-72008028D01*
X82008028Y-72152786D01*
X81887715Y-72318386D01*
X81794781Y-72500776D01*
X81731522Y-72695465D01*
X81699500Y-72897648D01*
X81699500Y-73102351D01*
X81731522Y-73304534D01*
X81794781Y-73499223D01*
X81887715Y-73681613D01*
X82008028Y-73847213D01*
X82152786Y-73991971D01*
X82270425Y-74077439D01*
X82318390Y-74112287D01*
X82430706Y-74169515D01*
X82500776Y-74205218D01*
X82500778Y-74205218D01*
X82500781Y-74205220D01*
X82605137Y-74239127D01*
X82695465Y-74268477D01*
X82758602Y-74278477D01*
X82897648Y-74300500D01*
X82897649Y-74300500D01*
X83102351Y-74300500D01*
X83102352Y-74300500D01*
X83304534Y-74268477D01*
X83499219Y-74205220D01*
X83681610Y-74112287D01*
X83779564Y-74041120D01*
X83847213Y-73991971D01*
X83847215Y-73991968D01*
X83847219Y-73991966D01*
X83991966Y-73847219D01*
X83991968Y-73847215D01*
X83991971Y-73847213D01*
X84080424Y-73725466D01*
X84112287Y-73681610D01*
X84205220Y-73499219D01*
X84268477Y-73304534D01*
X84300500Y-73102352D01*
X84300500Y-72897648D01*
X84291388Y-72840120D01*
X84268477Y-72695465D01*
X84208469Y-72510781D01*
X84205220Y-72500781D01*
X84205218Y-72500778D01*
X84205218Y-72500776D01*
X84171503Y-72434607D01*
X84112287Y-72318390D01*
X84104556Y-72307749D01*
X83991971Y-72152786D01*
X83847213Y-72008028D01*
X83681610Y-71887712D01*
X83668200Y-71880879D01*
X83617406Y-71832903D01*
X83600500Y-71770397D01*
X83600500Y-70550096D01*
X83620185Y-70483057D01*
X83636814Y-70462420D01*
X84437925Y-69661309D01*
X86599500Y-69661309D01*
X86599500Y-69664967D01*
X86599500Y-121588696D01*
X86634103Y-121762658D01*
X86634105Y-121762666D01*
X86665526Y-121838524D01*
X86665529Y-121838529D01*
X86668046Y-121844606D01*
X86701987Y-121926547D01*
X86761063Y-122014959D01*
X86764169Y-122019607D01*
X86764172Y-122019613D01*
X86800534Y-122074034D01*
X86800535Y-122074035D01*
X86800536Y-122074036D01*
X93550536Y-128824035D01*
X93631904Y-128905403D01*
X93675966Y-128949465D01*
X93823446Y-129048009D01*
X93823450Y-129048011D01*
X93823453Y-129048013D01*
X93863607Y-129064645D01*
X93863608Y-129064646D01*
X93863609Y-129064646D01*
X93987334Y-129115895D01*
X94161304Y-129150499D01*
X94161308Y-129150500D01*
X94161309Y-129150500D01*
X94338692Y-129150500D01*
X95815859Y-129150500D01*
X95882898Y-129170185D01*
X95928653Y-129222989D01*
X95932030Y-129231140D01*
X95936204Y-129242331D01*
X95936205Y-129242332D01*
X95936206Y-129242335D01*
X96022452Y-129357544D01*
X96022455Y-129357547D01*
X96137664Y-129443793D01*
X96137671Y-129443797D01*
X96182618Y-129460561D01*
X96272517Y-129494091D01*
X96332127Y-129500500D01*
X97055637Y-129500499D01*
X97122676Y-129520183D01*
X97143318Y-129536818D01*
X101555959Y-133949460D01*
X101555962Y-133949462D01*
X101555964Y-133949464D01*
X101607684Y-133984022D01*
X101703453Y-134048013D01*
X101751452Y-134067895D01*
X101867334Y-134115895D01*
X102041303Y-134150499D01*
X102041307Y-134150500D01*
X102041308Y-134150500D01*
X102041309Y-134150500D01*
X132233023Y-134150500D01*
X132300062Y-134170185D01*
X132345817Y-134222989D01*
X132353266Y-134250134D01*
X132354124Y-134249932D01*
X132355907Y-134257479D01*
X132406202Y-134392328D01*
X132406206Y-134392335D01*
X132492452Y-134507544D01*
X132492455Y-134507547D01*
X132607664Y-134593793D01*
X132607671Y-134593797D01*
X132742517Y-134644091D01*
X132750062Y-134645874D01*
X132749523Y-134648151D01*
X132803287Y-134670408D01*
X132843147Y-134727793D01*
X132849500Y-134766975D01*
X132849500Y-137838696D01*
X132884103Y-138012658D01*
X132884105Y-138012666D01*
X132915526Y-138088524D01*
X132915529Y-138088529D01*
X132918046Y-138094606D01*
X132951987Y-138176547D01*
X133011063Y-138264959D01*
X133014169Y-138269607D01*
X133014172Y-138269613D01*
X133050534Y-138324034D01*
X133050536Y-138324036D01*
X136800536Y-142074036D01*
X137050536Y-142324035D01*
X137175962Y-142449461D01*
X137175966Y-142449465D01*
X137323446Y-142548009D01*
X137323459Y-142548016D01*
X137405392Y-142581953D01*
X137487334Y-142615894D01*
X137529935Y-142624368D01*
X137661305Y-142650500D01*
X137661308Y-142650500D01*
X147588693Y-142650500D01*
X147588694Y-142650499D01*
X147762666Y-142615895D01*
X147844606Y-142581953D01*
X147926547Y-142548013D01*
X148014959Y-142488936D01*
X148074036Y-142449464D01*
X152699464Y-137824036D01*
X152738936Y-137764959D01*
X152798013Y-137676547D01*
X152831953Y-137594606D01*
X152865895Y-137512666D01*
X152900500Y-137338692D01*
X152900500Y-137161308D01*
X152900500Y-102807648D01*
X155949500Y-102807648D01*
X155949500Y-103012351D01*
X155981522Y-103214534D01*
X156044781Y-103409223D01*
X156137715Y-103591613D01*
X156258028Y-103757213D01*
X156402786Y-103901971D01*
X156557749Y-104014556D01*
X156568390Y-104022287D01*
X156684607Y-104081503D01*
X156750776Y-104115218D01*
X156750778Y-104115218D01*
X156750781Y-104115220D01*
X156855137Y-104149127D01*
X156945465Y-104178477D01*
X157046557Y-104194488D01*
X157147648Y-104210500D01*
X157147649Y-104210500D01*
X157352351Y-104210500D01*
X157352352Y-104210500D01*
X157554534Y-104178477D01*
X157749219Y-104115220D01*
X157931610Y-104022287D01*
X158024590Y-103954732D01*
X158097213Y-103901971D01*
X158097215Y-103901968D01*
X158097219Y-103901966D01*
X158241966Y-103757219D01*
X158241968Y-103757215D01*
X158241971Y-103757213D01*
X158362284Y-103591614D01*
X158362285Y-103591613D01*
X158362287Y-103591610D01*
X158369117Y-103578204D01*
X158417091Y-103527409D01*
X158479602Y-103510500D01*
X159253331Y-103510500D01*
X159253347Y-103510501D01*
X159260943Y-103510501D01*
X159419054Y-103510501D01*
X159419057Y-103510501D01*
X159571785Y-103469577D01*
X159621904Y-103440639D01*
X159708716Y-103390520D01*
X159820520Y-103278716D01*
X159820520Y-103278714D01*
X159830728Y-103268507D01*
X159830729Y-103268504D01*
X161480520Y-101618716D01*
X161559577Y-101481784D01*
X161600501Y-101329057D01*
X161600501Y-101170942D01*
X161600501Y-101163347D01*
X161600500Y-101163329D01*
X161600500Y-85409777D01*
X161620185Y-85342738D01*
X161636819Y-85322096D01*
X163122235Y-83836680D01*
X164607937Y-82350977D01*
X164669258Y-82317494D01*
X164738950Y-82322478D01*
X164751911Y-82328176D01*
X164811454Y-82358515D01*
X164811456Y-82358516D01*
X164916281Y-82392575D01*
X165021109Y-82426635D01*
X165238838Y-82461120D01*
X165238839Y-82461120D01*
X166259281Y-82461120D01*
X166259282Y-82461120D01*
X166477011Y-82426635D01*
X166686666Y-82358515D01*
X166883082Y-82258435D01*
X167061425Y-82128862D01*
X167217302Y-81972985D01*
X167346875Y-81794642D01*
X167446955Y-81598226D01*
X167515075Y-81388571D01*
X167549560Y-81170842D01*
X167549560Y-80950398D01*
X167515075Y-80732669D01*
X167446955Y-80523014D01*
X167446955Y-80523013D01*
X167412297Y-80454995D01*
X167346875Y-80326598D01*
X167330320Y-80303812D01*
X167217307Y-80148261D01*
X167217303Y-80148256D01*
X167061423Y-79992376D01*
X167061418Y-79992372D01*
X166883085Y-79862807D01*
X166883084Y-79862806D01*
X166883082Y-79862805D01*
X166820156Y-79830742D01*
X166686666Y-79762724D01*
X166686663Y-79762723D01*
X166477012Y-79694605D01*
X166368146Y-79677362D01*
X166259282Y-79660120D01*
X165238838Y-79660120D01*
X165166261Y-79671615D01*
X165021107Y-79694605D01*
X164811456Y-79762723D01*
X164811453Y-79762724D01*
X164615034Y-79862807D01*
X164436701Y-79992372D01*
X164436696Y-79992376D01*
X164280816Y-80148256D01*
X164280812Y-80148261D01*
X164151247Y-80326594D01*
X164051164Y-80523013D01*
X164051163Y-80523016D01*
X163983045Y-80732667D01*
X163948560Y-80950398D01*
X163948560Y-81170847D01*
X163957960Y-81230195D01*
X163949006Y-81299488D01*
X163923168Y-81337274D01*
X160631286Y-84629158D01*
X160519481Y-84740962D01*
X160519479Y-84740965D01*
X160469361Y-84827774D01*
X160469359Y-84827776D01*
X160440425Y-84877889D01*
X160440424Y-84877890D01*
X160424544Y-84937152D01*
X160399499Y-85030623D01*
X160399499Y-85030625D01*
X160399499Y-85198726D01*
X160399500Y-85198739D01*
X160399500Y-100949902D01*
X160379815Y-101016941D01*
X160363181Y-101037583D01*
X159127584Y-102273181D01*
X159066261Y-102306666D01*
X159039903Y-102309500D01*
X158479602Y-102309500D01*
X158412563Y-102289815D01*
X158369117Y-102241795D01*
X158362284Y-102228385D01*
X158241971Y-102062786D01*
X158097213Y-101918028D01*
X157931613Y-101797715D01*
X157931612Y-101797714D01*
X157931610Y-101797713D01*
X157874653Y-101768691D01*
X157749223Y-101704781D01*
X157554534Y-101641522D01*
X157379995Y-101613878D01*
X157352352Y-101609500D01*
X157147648Y-101609500D01*
X157123329Y-101613351D01*
X156945465Y-101641522D01*
X156750776Y-101704781D01*
X156568386Y-101797715D01*
X156402786Y-101918028D01*
X156258028Y-102062786D01*
X156137715Y-102228386D01*
X156044781Y-102410776D01*
X155981522Y-102605465D01*
X155949500Y-102807648D01*
X152900500Y-102807648D01*
X152900500Y-96174361D01*
X152920185Y-96107322D01*
X152936819Y-96086680D01*
X155336680Y-93686819D01*
X155398003Y-93653334D01*
X155424361Y-93650500D01*
X156259953Y-93650500D01*
X156326992Y-93670185D01*
X156347634Y-93686819D01*
X156402786Y-93741971D01*
X156557749Y-93854556D01*
X156568390Y-93862287D01*
X156684607Y-93921503D01*
X156750776Y-93955218D01*
X156750778Y-93955218D01*
X156750781Y-93955220D01*
X156855137Y-93989127D01*
X156945465Y-94018477D01*
X157046557Y-94034488D01*
X157147648Y-94050500D01*
X157147649Y-94050500D01*
X157352351Y-94050500D01*
X157352352Y-94050500D01*
X157554534Y-94018477D01*
X157749219Y-93955220D01*
X157931610Y-93862287D01*
X158024590Y-93794732D01*
X158097213Y-93741971D01*
X158097215Y-93741968D01*
X158097219Y-93741966D01*
X158241966Y-93597219D01*
X158241968Y-93597215D01*
X158241971Y-93597213D01*
X158294732Y-93524590D01*
X158362287Y-93431610D01*
X158455220Y-93249219D01*
X158518477Y-93054534D01*
X158550500Y-92852352D01*
X158550500Y-92647648D01*
X158518477Y-92445466D01*
X158455220Y-92250781D01*
X158455218Y-92250778D01*
X158455218Y-92250776D01*
X158421503Y-92184607D01*
X158362287Y-92068390D01*
X158349315Y-92050535D01*
X158241971Y-91902786D01*
X158186819Y-91847634D01*
X158153334Y-91786311D01*
X158150500Y-91759953D01*
X158150500Y-83924361D01*
X158170185Y-83857322D01*
X158186814Y-83836685D01*
X164707555Y-77315943D01*
X164768876Y-77282460D01*
X164833552Y-77285695D01*
X165021109Y-77346635D01*
X165238838Y-77381120D01*
X165238839Y-77381120D01*
X166259281Y-77381120D01*
X166259282Y-77381120D01*
X166477011Y-77346635D01*
X166686666Y-77278515D01*
X166883082Y-77178435D01*
X167061425Y-77048862D01*
X167217302Y-76892985D01*
X167346875Y-76714642D01*
X167446955Y-76518226D01*
X167515075Y-76308571D01*
X167549560Y-76090842D01*
X167549560Y-75870398D01*
X167515075Y-75652669D01*
X167446955Y-75443014D01*
X167446955Y-75443013D01*
X167412297Y-75374995D01*
X167346875Y-75246598D01*
X167304163Y-75187809D01*
X167217307Y-75068261D01*
X167217303Y-75068256D01*
X167061423Y-74912376D01*
X167061418Y-74912372D01*
X166921805Y-74810938D01*
X166879139Y-74755609D01*
X166873160Y-74685995D01*
X166905765Y-74624200D01*
X166921805Y-74610302D01*
X167061418Y-74508867D01*
X167061416Y-74508867D01*
X167061425Y-74508862D01*
X167217302Y-74352985D01*
X167346875Y-74174642D01*
X167446955Y-73978226D01*
X167515075Y-73768571D01*
X167549560Y-73550842D01*
X167549560Y-73330398D01*
X167515075Y-73112669D01*
X167481015Y-73007841D01*
X167446956Y-72903016D01*
X167446955Y-72903013D01*
X167376791Y-72765311D01*
X167346875Y-72706598D01*
X167305402Y-72649515D01*
X167217307Y-72528261D01*
X167217303Y-72528256D01*
X167061423Y-72372376D01*
X167061418Y-72372372D01*
X166921805Y-72270938D01*
X166879139Y-72215609D01*
X166873160Y-72145995D01*
X166905765Y-72084200D01*
X166921805Y-72070302D01*
X167061418Y-71968867D01*
X167061416Y-71968867D01*
X167061425Y-71968862D01*
X167217302Y-71812985D01*
X167346875Y-71634642D01*
X167446955Y-71438226D01*
X167515075Y-71228571D01*
X167549560Y-71010842D01*
X167549560Y-70790398D01*
X167515075Y-70572669D01*
X167479252Y-70462415D01*
X167446956Y-70363016D01*
X167446955Y-70363013D01*
X167376791Y-70225311D01*
X167346875Y-70166598D01*
X167288812Y-70086680D01*
X167217307Y-69988261D01*
X167217303Y-69988256D01*
X167061423Y-69832376D01*
X167061418Y-69832372D01*
X166883085Y-69702807D01*
X166883084Y-69702806D01*
X166883082Y-69702805D01*
X166808822Y-69664967D01*
X166686666Y-69602724D01*
X166686663Y-69602723D01*
X166477012Y-69534605D01*
X166368146Y-69517362D01*
X166259282Y-69500120D01*
X165238838Y-69500120D01*
X165166261Y-69511615D01*
X165021107Y-69534605D01*
X164811456Y-69602723D01*
X164811453Y-69602724D01*
X164615034Y-69702807D01*
X164436701Y-69832372D01*
X164436696Y-69832376D01*
X164280816Y-69988256D01*
X164280812Y-69988261D01*
X164151245Y-70166596D01*
X164117708Y-70232416D01*
X164069734Y-70283211D01*
X164007224Y-70300120D01*
X144446050Y-70300120D01*
X144446034Y-70300119D01*
X144438438Y-70300119D01*
X144280323Y-70300119D01*
X144140116Y-70337687D01*
X144127591Y-70341044D01*
X143990667Y-70420097D01*
X143990662Y-70420101D01*
X143762181Y-70648582D01*
X143700858Y-70682067D01*
X143631166Y-70677083D01*
X143575233Y-70635211D01*
X143550816Y-70569747D01*
X143550500Y-70560901D01*
X143550500Y-70367648D01*
X143518478Y-70165472D01*
X143518477Y-70165471D01*
X143518477Y-70165466D01*
X143513825Y-70151151D01*
X143511832Y-70081312D01*
X143544075Y-70025158D01*
X147111796Y-66457439D01*
X147173119Y-66423954D01*
X147199477Y-66421120D01*
X164007224Y-66421120D01*
X164074263Y-66440805D01*
X164117708Y-66488824D01*
X164151245Y-66554643D01*
X164280812Y-66732978D01*
X164280816Y-66732983D01*
X164436696Y-66888863D01*
X164436701Y-66888867D01*
X164592252Y-67001880D01*
X164615038Y-67018435D01*
X164734010Y-67079055D01*
X164811453Y-67118515D01*
X164811456Y-67118516D01*
X164916281Y-67152575D01*
X165021109Y-67186635D01*
X165238838Y-67221120D01*
X165238839Y-67221120D01*
X166259281Y-67221120D01*
X166259282Y-67221120D01*
X166477011Y-67186635D01*
X166686666Y-67118515D01*
X166883082Y-67018435D01*
X167061425Y-66888862D01*
X167217302Y-66732985D01*
X167346875Y-66554642D01*
X167446955Y-66358226D01*
X167515075Y-66148571D01*
X167549560Y-65930842D01*
X167549560Y-65710398D01*
X167515075Y-65492669D01*
X167446955Y-65283014D01*
X167446955Y-65283013D01*
X167380411Y-65152416D01*
X167346875Y-65086598D01*
X167330320Y-65063812D01*
X167217307Y-64908261D01*
X167217303Y-64908256D01*
X167061423Y-64752376D01*
X167061418Y-64752372D01*
X166921805Y-64650938D01*
X166879139Y-64595609D01*
X166873160Y-64525995D01*
X166905765Y-64464200D01*
X166921805Y-64450302D01*
X167061418Y-64348867D01*
X167061416Y-64348867D01*
X167061425Y-64348862D01*
X167217302Y-64192985D01*
X167346875Y-64014642D01*
X167446955Y-63818226D01*
X167515075Y-63608571D01*
X167549560Y-63390842D01*
X167549560Y-63170398D01*
X167515075Y-62952669D01*
X167446955Y-62743014D01*
X167446955Y-62743013D01*
X167412297Y-62674995D01*
X167346875Y-62546598D01*
X167330320Y-62523812D01*
X167217307Y-62368261D01*
X167217303Y-62368256D01*
X167061423Y-62212376D01*
X167061418Y-62212372D01*
X166921805Y-62110938D01*
X166879139Y-62055609D01*
X166873160Y-61985995D01*
X166905765Y-61924200D01*
X166921805Y-61910302D01*
X167061418Y-61808867D01*
X167061416Y-61808867D01*
X167061425Y-61808862D01*
X167217302Y-61652985D01*
X167346875Y-61474642D01*
X167446955Y-61278226D01*
X167515075Y-61068571D01*
X167549560Y-60850842D01*
X167549560Y-60630398D01*
X167515075Y-60412669D01*
X167481015Y-60307841D01*
X167446956Y-60203016D01*
X167446955Y-60203013D01*
X167409330Y-60129172D01*
X167346875Y-60006598D01*
X167271087Y-59902284D01*
X167217307Y-59828261D01*
X167217303Y-59828256D01*
X167061423Y-59672376D01*
X167061418Y-59672372D01*
X166921805Y-59570938D01*
X166879139Y-59515609D01*
X166873160Y-59445995D01*
X166905765Y-59384200D01*
X166921805Y-59370302D01*
X167061418Y-59268867D01*
X167061416Y-59268867D01*
X167061425Y-59268862D01*
X167217302Y-59112985D01*
X167346875Y-58934642D01*
X167446955Y-58738226D01*
X167515075Y-58528571D01*
X167549560Y-58310842D01*
X167549560Y-58090398D01*
X167515075Y-57872669D01*
X167446955Y-57663014D01*
X167446955Y-57663013D01*
X167376791Y-57525311D01*
X167346875Y-57466598D01*
X167271087Y-57362284D01*
X167217307Y-57288261D01*
X167217303Y-57288256D01*
X167061423Y-57132376D01*
X167061418Y-57132372D01*
X166921805Y-57030938D01*
X166879139Y-56975609D01*
X166873160Y-56905995D01*
X166905765Y-56844200D01*
X166921805Y-56830302D01*
X167061418Y-56728867D01*
X167061416Y-56728867D01*
X167061425Y-56728862D01*
X167217302Y-56572985D01*
X167346875Y-56394642D01*
X167446955Y-56198226D01*
X167515075Y-55988571D01*
X167549560Y-55770842D01*
X167549560Y-55550398D01*
X167515075Y-55332669D01*
X167446955Y-55123014D01*
X167446955Y-55123013D01*
X167405936Y-55042511D01*
X167346875Y-54926598D01*
X167271087Y-54822284D01*
X167217307Y-54748261D01*
X167217303Y-54748256D01*
X167061423Y-54592376D01*
X167061418Y-54592372D01*
X166921805Y-54490938D01*
X166879139Y-54435609D01*
X166873160Y-54365995D01*
X166905765Y-54304200D01*
X166921805Y-54290302D01*
X167061418Y-54188867D01*
X167061416Y-54188867D01*
X167061425Y-54188862D01*
X167217302Y-54032985D01*
X167346875Y-53854642D01*
X167446955Y-53658226D01*
X167515075Y-53448571D01*
X167549560Y-53230842D01*
X167549560Y-53010398D01*
X167515075Y-52792669D01*
X167446955Y-52583014D01*
X167446955Y-52583013D01*
X167376791Y-52445311D01*
X167346875Y-52386598D01*
X167271087Y-52282284D01*
X167217307Y-52208261D01*
X167217303Y-52208256D01*
X167061423Y-52052376D01*
X167061418Y-52052372D01*
X166921805Y-51950938D01*
X166879139Y-51895609D01*
X166873160Y-51825995D01*
X166905765Y-51764200D01*
X166921805Y-51750302D01*
X167061418Y-51648867D01*
X167061416Y-51648867D01*
X167061425Y-51648862D01*
X167217302Y-51492985D01*
X167346875Y-51314642D01*
X167446955Y-51118226D01*
X167515075Y-50908571D01*
X167549560Y-50690842D01*
X167549560Y-50470398D01*
X167515075Y-50252669D01*
X167446955Y-50043014D01*
X167446955Y-50043013D01*
X167376791Y-49905311D01*
X167346875Y-49846598D01*
X167271087Y-49742284D01*
X167217307Y-49668261D01*
X167217303Y-49668256D01*
X167061423Y-49512376D01*
X167061418Y-49512372D01*
X166921805Y-49410938D01*
X166879139Y-49355609D01*
X166873160Y-49285995D01*
X166905765Y-49224200D01*
X166921805Y-49210302D01*
X167061418Y-49108867D01*
X167061416Y-49108867D01*
X167061425Y-49108862D01*
X167217302Y-48952985D01*
X167346875Y-48774642D01*
X167446955Y-48578226D01*
X167515075Y-48368571D01*
X167549560Y-48150842D01*
X167549560Y-47930398D01*
X167515075Y-47712669D01*
X167446955Y-47503014D01*
X167446955Y-47503013D01*
X167376791Y-47365311D01*
X167346875Y-47306598D01*
X167271087Y-47202284D01*
X167217307Y-47128261D01*
X167217303Y-47128256D01*
X167061423Y-46972376D01*
X167061418Y-46972372D01*
X166921805Y-46870938D01*
X166879139Y-46815609D01*
X166873160Y-46745995D01*
X166905765Y-46684200D01*
X166921805Y-46670302D01*
X167061418Y-46568867D01*
X167061416Y-46568867D01*
X167061425Y-46568862D01*
X167217302Y-46412985D01*
X167346875Y-46234642D01*
X167446955Y-46038226D01*
X167515075Y-45828571D01*
X167549560Y-45610842D01*
X167549560Y-45390398D01*
X167515075Y-45172669D01*
X167446955Y-44963014D01*
X167446955Y-44963013D01*
X167376791Y-44825311D01*
X167346875Y-44766598D01*
X167271087Y-44662284D01*
X167217307Y-44588261D01*
X167217303Y-44588256D01*
X167061423Y-44432376D01*
X167061418Y-44432372D01*
X166883085Y-44302807D01*
X166883084Y-44302806D01*
X166883082Y-44302805D01*
X166820156Y-44270742D01*
X166686666Y-44202724D01*
X166686663Y-44202723D01*
X166477012Y-44134605D01*
X166368146Y-44117362D01*
X166259282Y-44100120D01*
X165238838Y-44100120D01*
X165166261Y-44111615D01*
X165021107Y-44134605D01*
X164811456Y-44202723D01*
X164811453Y-44202724D01*
X164615034Y-44302807D01*
X164436701Y-44432372D01*
X164436696Y-44432376D01*
X164280816Y-44588256D01*
X164280812Y-44588261D01*
X164151247Y-44766594D01*
X164051164Y-44963013D01*
X164051163Y-44963016D01*
X163983045Y-45172667D01*
X163949431Y-45384898D01*
X163919502Y-45448033D01*
X163860190Y-45484964D01*
X163826958Y-45489500D01*
X143479602Y-45489500D01*
X143412563Y-45469815D01*
X143369117Y-45421795D01*
X143362284Y-45408385D01*
X143241971Y-45242786D01*
X143097213Y-45098028D01*
X142931614Y-44977715D01*
X142925006Y-44974348D01*
X142838917Y-44930483D01*
X142788123Y-44882511D01*
X142771328Y-44814690D01*
X142793865Y-44748555D01*
X142838917Y-44709516D01*
X142931610Y-44662287D01*
X143033506Y-44588256D01*
X143097213Y-44541971D01*
X143097215Y-44541968D01*
X143097219Y-44541966D01*
X143241966Y-44397219D01*
X143241968Y-44397215D01*
X143241971Y-44397213D01*
X143310561Y-44302805D01*
X143362287Y-44231610D01*
X143455220Y-44049219D01*
X143518477Y-43854534D01*
X143550500Y-43652352D01*
X143550500Y-43447648D01*
X143518477Y-43245466D01*
X143455220Y-43050781D01*
X143455218Y-43050778D01*
X143455218Y-43050776D01*
X143421503Y-42984607D01*
X143362287Y-42868390D01*
X143354556Y-42857749D01*
X143241971Y-42702786D01*
X143097213Y-42558028D01*
X142931614Y-42437715D01*
X142925006Y-42434348D01*
X142838917Y-42390483D01*
X142788123Y-42342511D01*
X142771328Y-42274690D01*
X142793865Y-42208555D01*
X142838917Y-42169516D01*
X142931610Y-42122287D01*
X142952770Y-42106913D01*
X143097213Y-42001971D01*
X143097215Y-42001968D01*
X143097219Y-42001966D01*
X143241966Y-41857219D01*
X143241968Y-41857215D01*
X143241971Y-41857213D01*
X143294732Y-41784590D01*
X143362287Y-41691610D01*
X143455220Y-41509219D01*
X143518477Y-41314534D01*
X143550500Y-41112352D01*
X143550500Y-40907648D01*
X143518477Y-40705466D01*
X143455220Y-40510781D01*
X143455218Y-40510778D01*
X143455218Y-40510776D01*
X143421503Y-40444607D01*
X143362287Y-40328390D01*
X143351686Y-40313799D01*
X143241971Y-40162786D01*
X143097213Y-40018028D01*
X142931613Y-39897715D01*
X142931612Y-39897714D01*
X142931610Y-39897713D01*
X142872149Y-39867416D01*
X142749223Y-39804781D01*
X142554534Y-39741522D01*
X142379995Y-39713878D01*
X142352352Y-39709500D01*
X142147648Y-39709500D01*
X142123329Y-39713351D01*
X141945465Y-39741522D01*
X141750776Y-39804781D01*
X141568386Y-39897715D01*
X141402786Y-40018028D01*
X141258028Y-40162786D01*
X141137715Y-40328386D01*
X141044781Y-40510776D01*
X140981522Y-40705465D01*
X140949500Y-40907648D01*
X140949500Y-41112351D01*
X140981522Y-41314534D01*
X141044781Y-41509223D01*
X141137715Y-41691613D01*
X141258028Y-41857213D01*
X141402786Y-42001971D01*
X141557749Y-42114556D01*
X141568390Y-42122287D01*
X141659840Y-42168883D01*
X141661080Y-42169515D01*
X141711876Y-42217490D01*
X141728671Y-42285311D01*
X141706134Y-42351446D01*
X141661080Y-42390485D01*
X141568386Y-42437715D01*
X141402786Y-42558028D01*
X141258028Y-42702786D01*
X141137715Y-42868386D01*
X141044781Y-43050776D01*
X140981522Y-43245465D01*
X140949500Y-43447648D01*
X140949500Y-43652351D01*
X140981522Y-43854534D01*
X141044781Y-44049223D01*
X141070715Y-44100120D01*
X141122995Y-44202725D01*
X141137715Y-44231613D01*
X141258028Y-44397213D01*
X141402786Y-44541971D01*
X141557749Y-44654556D01*
X141568390Y-44662287D01*
X141659840Y-44708883D01*
X141661080Y-44709515D01*
X141711876Y-44757490D01*
X141728671Y-44825311D01*
X141706134Y-44891446D01*
X141661080Y-44930485D01*
X141568386Y-44977715D01*
X141402786Y-45098028D01*
X141258028Y-45242786D01*
X141137715Y-45408386D01*
X141044781Y-45590776D01*
X140981522Y-45785465D01*
X140949500Y-45987648D01*
X140949500Y-46192351D01*
X140981522Y-46394534D01*
X141044781Y-46589223D01*
X141086094Y-46670302D01*
X141133320Y-46762989D01*
X141137715Y-46771613D01*
X141258028Y-46937213D01*
X141402786Y-47081971D01*
X141557749Y-47194556D01*
X141568390Y-47202287D01*
X141659840Y-47248883D01*
X141661080Y-47249515D01*
X141711876Y-47297490D01*
X141728671Y-47365311D01*
X141706134Y-47431446D01*
X141661080Y-47470485D01*
X141568386Y-47517715D01*
X141402786Y-47638028D01*
X141258028Y-47782786D01*
X141137715Y-47948386D01*
X141044781Y-48130776D01*
X140981522Y-48325465D01*
X140949500Y-48527648D01*
X140949500Y-48732351D01*
X140981522Y-48934534D01*
X141044781Y-49129223D01*
X141086094Y-49210302D01*
X141133320Y-49302989D01*
X141137715Y-49311613D01*
X141258028Y-49477213D01*
X141402786Y-49621971D01*
X141557749Y-49734556D01*
X141568390Y-49742287D01*
X141659840Y-49788883D01*
X141661080Y-49789515D01*
X141711876Y-49837490D01*
X141728671Y-49905311D01*
X141706134Y-49971446D01*
X141661080Y-50010485D01*
X141568386Y-50057715D01*
X141402786Y-50178028D01*
X141258028Y-50322786D01*
X141137715Y-50488386D01*
X141044781Y-50670776D01*
X140981522Y-50865465D01*
X140949500Y-51067648D01*
X140949500Y-51272351D01*
X140981522Y-51474534D01*
X141044781Y-51669223D01*
X141086094Y-51750302D01*
X141133320Y-51842989D01*
X141137715Y-51851613D01*
X141258028Y-52017213D01*
X141402786Y-52161971D01*
X141557749Y-52274556D01*
X141568390Y-52282287D01*
X141659840Y-52328883D01*
X141661080Y-52329515D01*
X141711876Y-52377490D01*
X141728671Y-52445311D01*
X141706134Y-52511446D01*
X141661080Y-52550485D01*
X141568386Y-52597715D01*
X141402786Y-52718028D01*
X141258028Y-52862786D01*
X141137715Y-53028386D01*
X141044781Y-53210776D01*
X140981522Y-53405465D01*
X140949500Y-53607648D01*
X140949500Y-53812351D01*
X140981522Y-54014534D01*
X141044781Y-54209223D01*
X141086094Y-54290302D01*
X141133320Y-54382989D01*
X141137715Y-54391613D01*
X141258028Y-54557213D01*
X141402786Y-54701971D01*
X141557749Y-54814556D01*
X141568390Y-54822287D01*
X141659840Y-54868883D01*
X141661080Y-54869515D01*
X141711876Y-54917490D01*
X141728671Y-54985311D01*
X141706134Y-55051446D01*
X141661080Y-55090485D01*
X141568386Y-55137715D01*
X141402786Y-55258028D01*
X141258028Y-55402786D01*
X141137715Y-55568386D01*
X141044781Y-55750776D01*
X140981522Y-55945465D01*
X140949500Y-56147648D01*
X140949500Y-56352351D01*
X140981522Y-56554534D01*
X141044781Y-56749223D01*
X141086094Y-56830302D01*
X141124661Y-56905995D01*
X141137715Y-56931613D01*
X141258028Y-57097213D01*
X141402786Y-57241971D01*
X141514939Y-57323453D01*
X141568390Y-57362287D01*
X141659840Y-57408883D01*
X141661080Y-57409515D01*
X141711876Y-57457490D01*
X141728671Y-57525311D01*
X141706134Y-57591446D01*
X141661080Y-57630485D01*
X141568386Y-57677715D01*
X141402786Y-57798028D01*
X141258028Y-57942786D01*
X141137715Y-58108386D01*
X141044781Y-58290776D01*
X140981522Y-58485465D01*
X140949500Y-58687648D01*
X140949500Y-58892351D01*
X140981522Y-59094534D01*
X141044781Y-59289223D01*
X141108691Y-59414653D01*
X141124661Y-59445995D01*
X141137715Y-59471613D01*
X141258028Y-59637213D01*
X141402786Y-59781971D01*
X141557749Y-59894556D01*
X141568390Y-59902287D01*
X141684607Y-59961503D01*
X141750776Y-59995218D01*
X141750778Y-59995218D01*
X141750781Y-59995220D01*
X141855137Y-60029127D01*
X141945465Y-60058477D01*
X142046557Y-60074488D01*
X142147648Y-60090500D01*
X142147649Y-60090500D01*
X142352351Y-60090500D01*
X142352352Y-60090500D01*
X142554534Y-60058477D01*
X142749219Y-59995220D01*
X142931610Y-59902287D01*
X143033507Y-59828255D01*
X143097213Y-59781971D01*
X143097215Y-59781968D01*
X143097219Y-59781966D01*
X143241966Y-59637219D01*
X143241968Y-59637215D01*
X143241971Y-59637213D01*
X143310561Y-59542805D01*
X143362287Y-59471610D01*
X143455220Y-59289219D01*
X143518477Y-59094534D01*
X143550500Y-58892352D01*
X143550500Y-58687648D01*
X143544616Y-58650500D01*
X143518477Y-58485465D01*
X143488758Y-58393999D01*
X143455220Y-58290781D01*
X143455218Y-58290778D01*
X143455218Y-58290776D01*
X143397017Y-58176552D01*
X143362287Y-58108390D01*
X143292741Y-58012667D01*
X143241971Y-57942786D01*
X143097213Y-57798028D01*
X142931614Y-57677715D01*
X142925006Y-57674348D01*
X142838917Y-57630483D01*
X142788123Y-57582511D01*
X142771328Y-57514690D01*
X142793865Y-57448555D01*
X142838917Y-57409516D01*
X142931610Y-57362287D01*
X142985061Y-57323453D01*
X143097213Y-57241971D01*
X143097215Y-57241968D01*
X143097219Y-57241966D01*
X143241966Y-57097219D01*
X143241968Y-57097215D01*
X143241971Y-57097213D01*
X143347485Y-56951983D01*
X143362287Y-56931610D01*
X143455220Y-56749219D01*
X143518477Y-56554534D01*
X143550500Y-56352352D01*
X143550500Y-56147648D01*
X143518477Y-55945465D01*
X143455218Y-55750776D01*
X143421503Y-55684607D01*
X143362287Y-55568390D01*
X143349215Y-55550398D01*
X143241971Y-55402786D01*
X143097213Y-55258028D01*
X142931614Y-55137715D01*
X142925006Y-55134348D01*
X142838917Y-55090483D01*
X142788123Y-55042511D01*
X142771328Y-54974690D01*
X142793865Y-54908555D01*
X142838917Y-54869516D01*
X142931610Y-54822287D01*
X143033506Y-54748256D01*
X143097213Y-54701971D01*
X143097215Y-54701968D01*
X143097219Y-54701966D01*
X143241966Y-54557219D01*
X143241968Y-54557215D01*
X143241971Y-54557213D01*
X143362284Y-54391614D01*
X143362285Y-54391613D01*
X143362287Y-54391610D01*
X143369117Y-54378204D01*
X143417091Y-54327409D01*
X143479602Y-54310500D01*
X164443034Y-54310500D01*
X164510073Y-54330185D01*
X164555828Y-54382989D01*
X164565772Y-54452147D01*
X164536747Y-54515703D01*
X164515919Y-54534818D01*
X164436700Y-54592372D01*
X164280816Y-54748256D01*
X164280812Y-54748261D01*
X164151247Y-54926594D01*
X164051164Y-55123013D01*
X164051163Y-55123016D01*
X163983045Y-55332667D01*
X163948560Y-55550398D01*
X163948560Y-55770841D01*
X163983045Y-55988572D01*
X164051163Y-56198223D01*
X164051164Y-56198226D01*
X164119182Y-56331716D01*
X164129696Y-56352351D01*
X164151247Y-56394645D01*
X164280812Y-56572978D01*
X164280816Y-56572983D01*
X164436696Y-56728863D01*
X164436701Y-56728867D01*
X164576314Y-56830302D01*
X164618980Y-56885632D01*
X164624959Y-56955245D01*
X164592353Y-57017040D01*
X164576314Y-57030938D01*
X164436701Y-57132372D01*
X164436696Y-57132376D01*
X164280816Y-57288256D01*
X164280812Y-57288261D01*
X164151247Y-57466594D01*
X164051164Y-57663013D01*
X164051163Y-57663016D01*
X163983045Y-57872667D01*
X163960871Y-58012667D01*
X163948560Y-58090398D01*
X163948560Y-58310842D01*
X163958060Y-58370821D01*
X163983045Y-58528572D01*
X164051163Y-58738223D01*
X164051164Y-58738226D01*
X164114324Y-58862181D01*
X164129696Y-58892351D01*
X164151247Y-58934645D01*
X164280812Y-59112978D01*
X164280816Y-59112983D01*
X164436696Y-59268863D01*
X164436701Y-59268867D01*
X164576314Y-59370302D01*
X164618980Y-59425632D01*
X164624959Y-59495245D01*
X164592353Y-59557040D01*
X164576314Y-59570938D01*
X164436701Y-59672372D01*
X164436696Y-59672376D01*
X164280816Y-59828256D01*
X164280812Y-59828261D01*
X164151247Y-60006594D01*
X164051164Y-60203013D01*
X164051163Y-60203016D01*
X163983045Y-60412667D01*
X163948560Y-60630398D01*
X163948560Y-60850841D01*
X163983045Y-61068572D01*
X164051163Y-61278223D01*
X164051164Y-61278226D01*
X164151247Y-61474645D01*
X164280812Y-61652978D01*
X164280816Y-61652983D01*
X164436696Y-61808863D01*
X164436701Y-61808867D01*
X164576314Y-61910302D01*
X164618980Y-61965632D01*
X164624959Y-62035245D01*
X164592353Y-62097040D01*
X164576314Y-62110938D01*
X164436701Y-62212372D01*
X164436696Y-62212376D01*
X164280816Y-62368256D01*
X164280812Y-62368261D01*
X164151247Y-62546594D01*
X164051164Y-62743013D01*
X164051163Y-62743016D01*
X163983045Y-62952667D01*
X163948560Y-63170398D01*
X163948560Y-63390841D01*
X163983045Y-63608572D01*
X164051163Y-63818223D01*
X164051164Y-63818226D01*
X164151247Y-64014645D01*
X164280812Y-64192978D01*
X164280816Y-64192983D01*
X164436696Y-64348863D01*
X164436701Y-64348867D01*
X164576314Y-64450302D01*
X164618980Y-64505632D01*
X164624959Y-64575245D01*
X164592353Y-64637040D01*
X164576314Y-64650938D01*
X164436701Y-64752372D01*
X164436696Y-64752376D01*
X164280816Y-64908256D01*
X164280812Y-64908261D01*
X164151245Y-65086596D01*
X164117708Y-65152416D01*
X164069734Y-65203211D01*
X164007224Y-65220120D01*
X146820322Y-65220120D01*
X146667596Y-65261042D01*
X146629539Y-65283015D01*
X146629538Y-65283014D01*
X146530667Y-65340097D01*
X146530662Y-65340101D01*
X143762181Y-68108583D01*
X143700858Y-68142068D01*
X143631166Y-68137084D01*
X143575233Y-68095212D01*
X143550816Y-68029748D01*
X143550500Y-68020902D01*
X143550500Y-67827648D01*
X143518477Y-67625465D01*
X143474697Y-67490724D01*
X143455220Y-67430781D01*
X143455218Y-67430778D01*
X143455218Y-67430776D01*
X143412439Y-67346819D01*
X143362287Y-67248390D01*
X143317419Y-67186634D01*
X143241971Y-67082786D01*
X143097213Y-66938028D01*
X142931614Y-66817715D01*
X142925006Y-66814348D01*
X142838917Y-66770483D01*
X142788123Y-66722511D01*
X142771328Y-66654690D01*
X142793865Y-66588555D01*
X142838917Y-66549516D01*
X142931610Y-66502287D01*
X142952770Y-66486913D01*
X143097213Y-66381971D01*
X143097215Y-66381968D01*
X143097219Y-66381966D01*
X143241966Y-66237219D01*
X143241968Y-66237215D01*
X143241971Y-66237213D01*
X143337690Y-66105465D01*
X143362287Y-66071610D01*
X143455220Y-65889219D01*
X143518477Y-65694534D01*
X143550500Y-65492352D01*
X143550500Y-65287648D01*
X143518477Y-65085466D01*
X143455220Y-64890781D01*
X143455218Y-64890778D01*
X143455218Y-64890776D01*
X143421503Y-64824607D01*
X143362287Y-64708390D01*
X143310449Y-64637040D01*
X143241971Y-64542786D01*
X143097213Y-64398028D01*
X142931614Y-64277715D01*
X142925006Y-64274348D01*
X142838917Y-64230483D01*
X142788123Y-64182511D01*
X142771328Y-64114690D01*
X142793865Y-64048555D01*
X142838917Y-64009516D01*
X142931610Y-63962287D01*
X142952770Y-63946913D01*
X143097213Y-63841971D01*
X143097215Y-63841968D01*
X143097219Y-63841966D01*
X143241966Y-63697219D01*
X143241968Y-63697215D01*
X143241971Y-63697213D01*
X143306372Y-63608571D01*
X143362287Y-63531610D01*
X143455220Y-63349219D01*
X143518477Y-63154534D01*
X143550500Y-62952352D01*
X143550500Y-62747648D01*
X143518477Y-62545466D01*
X143455220Y-62350781D01*
X143455218Y-62350778D01*
X143455218Y-62350776D01*
X143384719Y-62212416D01*
X143362287Y-62168390D01*
X143304651Y-62089060D01*
X143241971Y-62002786D01*
X143097213Y-61858028D01*
X142931613Y-61737715D01*
X142931612Y-61737714D01*
X142931610Y-61737713D01*
X142874653Y-61708691D01*
X142749223Y-61644781D01*
X142554534Y-61581522D01*
X142379995Y-61553878D01*
X142352352Y-61549500D01*
X142147648Y-61549500D01*
X142123329Y-61553351D01*
X141945465Y-61581522D01*
X141750776Y-61644781D01*
X141568386Y-61737715D01*
X141402786Y-61858028D01*
X141258028Y-62002786D01*
X141137715Y-62168386D01*
X141044781Y-62350776D01*
X140981522Y-62545465D01*
X140949500Y-62747648D01*
X140949500Y-62952351D01*
X140981522Y-63154534D01*
X141044781Y-63349223D01*
X141137715Y-63531613D01*
X141258028Y-63697213D01*
X141402786Y-63841971D01*
X141557749Y-63954556D01*
X141568390Y-63962287D01*
X141659840Y-64008883D01*
X141661080Y-64009515D01*
X141711876Y-64057490D01*
X141728671Y-64125311D01*
X141706134Y-64191446D01*
X141661080Y-64230485D01*
X141568386Y-64277715D01*
X141402786Y-64398028D01*
X141258028Y-64542786D01*
X141137715Y-64708386D01*
X141044781Y-64890776D01*
X140981522Y-65085465D01*
X140949500Y-65287648D01*
X140949500Y-65492351D01*
X140981523Y-65694534D01*
X140981522Y-65694534D01*
X141044781Y-65889223D01*
X141137715Y-66071613D01*
X141258028Y-66237213D01*
X141402786Y-66381971D01*
X141549860Y-66488824D01*
X141568390Y-66502287D01*
X141659840Y-66548883D01*
X141661080Y-66549515D01*
X141711876Y-66597490D01*
X141728671Y-66665311D01*
X141706134Y-66731446D01*
X141661080Y-66770485D01*
X141568386Y-66817715D01*
X141402786Y-66938028D01*
X141258028Y-67082786D01*
X141137715Y-67248386D01*
X141044781Y-67430776D01*
X140981522Y-67625465D01*
X140949500Y-67827648D01*
X140949500Y-68032351D01*
X140981522Y-68234534D01*
X141044781Y-68429223D01*
X141137715Y-68611613D01*
X141258028Y-68777213D01*
X141402786Y-68921971D01*
X141557749Y-69034556D01*
X141568390Y-69042287D01*
X141659840Y-69088883D01*
X141661080Y-69089515D01*
X141711876Y-69137490D01*
X141728671Y-69205311D01*
X141706134Y-69271446D01*
X141661080Y-69310485D01*
X141568386Y-69357715D01*
X141402786Y-69478028D01*
X141258028Y-69622786D01*
X141137715Y-69788386D01*
X141044781Y-69970776D01*
X140981522Y-70165465D01*
X140949500Y-70367648D01*
X140949500Y-70572351D01*
X140981522Y-70774534D01*
X141044781Y-70969223D01*
X141137715Y-71151613D01*
X141258028Y-71317213D01*
X141402786Y-71461971D01*
X141549860Y-71568824D01*
X141568390Y-71582287D01*
X141659840Y-71628883D01*
X141661080Y-71629515D01*
X141711876Y-71677490D01*
X141728671Y-71745311D01*
X141706134Y-71811446D01*
X141661080Y-71850485D01*
X141568386Y-71897715D01*
X141402786Y-72018028D01*
X141258028Y-72162786D01*
X141137715Y-72328386D01*
X141044781Y-72510776D01*
X140981522Y-72705465D01*
X140949500Y-72907648D01*
X140949500Y-73112351D01*
X140981522Y-73314534D01*
X141044781Y-73509223D01*
X141099906Y-73617409D01*
X141132619Y-73681613D01*
X141137715Y-73691613D01*
X141258028Y-73857213D01*
X141402786Y-74001971D01*
X141549860Y-74108824D01*
X141568390Y-74122287D01*
X141659840Y-74168883D01*
X141661080Y-74169515D01*
X141711876Y-74217490D01*
X141728671Y-74285311D01*
X141706134Y-74351446D01*
X141661080Y-74390485D01*
X141568386Y-74437715D01*
X141402786Y-74558028D01*
X141258028Y-74702786D01*
X141137715Y-74868386D01*
X141044781Y-75050776D01*
X140981522Y-75245465D01*
X140949500Y-75447648D01*
X140949500Y-75652351D01*
X140981522Y-75854534D01*
X141044781Y-76049223D01*
X141137715Y-76231613D01*
X141258028Y-76397213D01*
X141402786Y-76541971D01*
X141557749Y-76654556D01*
X141568390Y-76662287D01*
X141671148Y-76714645D01*
X141750776Y-76755218D01*
X141750778Y-76755218D01*
X141750781Y-76755220D01*
X141855137Y-76789127D01*
X141945465Y-76818477D01*
X142046557Y-76834488D01*
X142147648Y-76850500D01*
X142147649Y-76850500D01*
X142352351Y-76850500D01*
X142352352Y-76850500D01*
X142554534Y-76818477D01*
X142749219Y-76755220D01*
X142931610Y-76662287D01*
X143024590Y-76594732D01*
X143097213Y-76541971D01*
X143097215Y-76541968D01*
X143097219Y-76541966D01*
X143241966Y-76397219D01*
X143241968Y-76397215D01*
X143241971Y-76397213D01*
X143362284Y-76231614D01*
X143362285Y-76231613D01*
X143362287Y-76231610D01*
X143369117Y-76218204D01*
X143417091Y-76167409D01*
X143479602Y-76150500D01*
X143999903Y-76150500D01*
X144066942Y-76170185D01*
X144087584Y-76186819D01*
X145863181Y-77962416D01*
X145896666Y-78023739D01*
X145899500Y-78050097D01*
X145899500Y-112449902D01*
X145879815Y-112516941D01*
X145863181Y-112537583D01*
X145577584Y-112823181D01*
X145516261Y-112856666D01*
X145489903Y-112859500D01*
X114546670Y-112859500D01*
X114546654Y-112859499D01*
X114539058Y-112859499D01*
X114380943Y-112859499D01*
X114304579Y-112879961D01*
X114228214Y-112900423D01*
X114228209Y-112900426D01*
X114091290Y-112979475D01*
X114091282Y-112979481D01*
X100074532Y-126996231D01*
X100013209Y-127029716D01*
X99967453Y-127031023D01*
X99768422Y-126999500D01*
X99768417Y-126999500D01*
X99571583Y-126999500D01*
X99571578Y-126999500D01*
X99377173Y-127030290D01*
X99189970Y-127091117D01*
X99014594Y-127180476D01*
X98923741Y-127246485D01*
X98855354Y-127296172D01*
X98855352Y-127296174D01*
X98855351Y-127296174D01*
X98716173Y-127435352D01*
X98604817Y-127588620D01*
X98549486Y-127631285D01*
X98479873Y-127637264D01*
X98418078Y-127604658D01*
X98383721Y-127543819D01*
X98380499Y-127515734D01*
X98380499Y-127452129D01*
X98380498Y-127452123D01*
X98378695Y-127435352D01*
X98374091Y-127392517D01*
X98338157Y-127296174D01*
X98323797Y-127257671D01*
X98323793Y-127257664D01*
X98237547Y-127142455D01*
X98237544Y-127142452D01*
X98122335Y-127056206D01*
X98122328Y-127056202D01*
X97987482Y-127005908D01*
X97987483Y-127005908D01*
X97927883Y-126999501D01*
X97927881Y-126999500D01*
X97927873Y-126999500D01*
X97927864Y-126999500D01*
X96332129Y-126999500D01*
X96332123Y-126999501D01*
X96272516Y-127005908D01*
X96137671Y-127056202D01*
X96137664Y-127056206D01*
X96022455Y-127142452D01*
X96022452Y-127142455D01*
X95936206Y-127257664D01*
X95936204Y-127257668D01*
X95936204Y-127257669D01*
X95932039Y-127268834D01*
X95890171Y-127324766D01*
X95824707Y-127349184D01*
X95815859Y-127349500D01*
X94674361Y-127349500D01*
X94607322Y-127329815D01*
X94586680Y-127313181D01*
X88436819Y-121163319D01*
X88403334Y-121101996D01*
X88400500Y-121075638D01*
X88400500Y-80527648D01*
X140949500Y-80527648D01*
X140949500Y-80732351D01*
X140981522Y-80934534D01*
X141044781Y-81129223D01*
X141096230Y-81230195D01*
X141128026Y-81292599D01*
X141137715Y-81311613D01*
X141258028Y-81477213D01*
X141402786Y-81621971D01*
X141557749Y-81734556D01*
X141568390Y-81742287D01*
X141659840Y-81788883D01*
X141661080Y-81789515D01*
X141711876Y-81837490D01*
X141728671Y-81905311D01*
X141706134Y-81971446D01*
X141661080Y-82010485D01*
X141568386Y-82057715D01*
X141402786Y-82178028D01*
X141258028Y-82322786D01*
X141137715Y-82488386D01*
X141044781Y-82670776D01*
X140981522Y-82865465D01*
X140949500Y-83067648D01*
X140949500Y-83272351D01*
X140981522Y-83474534D01*
X141044781Y-83669223D01*
X141137715Y-83851613D01*
X141258028Y-84017213D01*
X141402786Y-84161971D01*
X141557749Y-84274556D01*
X141568390Y-84282287D01*
X141659840Y-84328883D01*
X141661080Y-84329515D01*
X141711876Y-84377490D01*
X141728671Y-84445311D01*
X141706134Y-84511446D01*
X141661080Y-84550485D01*
X141568386Y-84597715D01*
X141402786Y-84718028D01*
X141258028Y-84862786D01*
X141137715Y-85028386D01*
X141044781Y-85210776D01*
X140981522Y-85405465D01*
X140949500Y-85607648D01*
X140949500Y-85812351D01*
X140981522Y-86014534D01*
X141044781Y-86209223D01*
X141137715Y-86391613D01*
X141258028Y-86557213D01*
X141402786Y-86701971D01*
X141557749Y-86814556D01*
X141568390Y-86822287D01*
X141684607Y-86881503D01*
X141750776Y-86915218D01*
X141750778Y-86915218D01*
X141750781Y-86915220D01*
X141855137Y-86949127D01*
X141945465Y-86978477D01*
X142046557Y-86994488D01*
X142147648Y-87010500D01*
X142147649Y-87010500D01*
X142352351Y-87010500D01*
X142352352Y-87010500D01*
X142554534Y-86978477D01*
X142749219Y-86915220D01*
X142931610Y-86822287D01*
X143024590Y-86754732D01*
X143097213Y-86701971D01*
X143097215Y-86701968D01*
X143097219Y-86701966D01*
X143241966Y-86557219D01*
X143241968Y-86557215D01*
X143241971Y-86557213D01*
X143294732Y-86484590D01*
X143362287Y-86391610D01*
X143455220Y-86209219D01*
X143518477Y-86014534D01*
X143550500Y-85812352D01*
X143550500Y-85607648D01*
X143518477Y-85405466D01*
X143498095Y-85342738D01*
X143455218Y-85210776D01*
X143421503Y-85144607D01*
X143362287Y-85028390D01*
X143354556Y-85017749D01*
X143241971Y-84862786D01*
X143097213Y-84718028D01*
X142931614Y-84597715D01*
X142925006Y-84594348D01*
X142838917Y-84550483D01*
X142788123Y-84502511D01*
X142771328Y-84434690D01*
X142793865Y-84368555D01*
X142838917Y-84329516D01*
X142931610Y-84282287D01*
X142952770Y-84266913D01*
X143097213Y-84161971D01*
X143097215Y-84161968D01*
X143097219Y-84161966D01*
X143241966Y-84017219D01*
X143241968Y-84017215D01*
X143241971Y-84017213D01*
X143346746Y-83873000D01*
X143362287Y-83851610D01*
X143455220Y-83669219D01*
X143518477Y-83474534D01*
X143550500Y-83272352D01*
X143550500Y-83067648D01*
X143518477Y-82865466D01*
X143455220Y-82670781D01*
X143455218Y-82670778D01*
X143455218Y-82670776D01*
X143421503Y-82604607D01*
X143362287Y-82488390D01*
X143317419Y-82426634D01*
X143241971Y-82322786D01*
X143097213Y-82178028D01*
X142931614Y-82057715D01*
X142925006Y-82054348D01*
X142838917Y-82010483D01*
X142788123Y-81962511D01*
X142771328Y-81894690D01*
X142793865Y-81828555D01*
X142838917Y-81789516D01*
X142931610Y-81742287D01*
X142952770Y-81726913D01*
X143097213Y-81621971D01*
X143097215Y-81621968D01*
X143097219Y-81621966D01*
X143241966Y-81477219D01*
X143241968Y-81477215D01*
X143241971Y-81477213D01*
X143343641Y-81337274D01*
X143362287Y-81311610D01*
X143455220Y-81129219D01*
X143518477Y-80934534D01*
X143550500Y-80732352D01*
X143550500Y-80527648D01*
X143518477Y-80325466D01*
X143455220Y-80130781D01*
X143455218Y-80130778D01*
X143455218Y-80130776D01*
X143421503Y-80064607D01*
X143362287Y-79948390D01*
X143300108Y-79862807D01*
X143241971Y-79782786D01*
X143097213Y-79638028D01*
X142931613Y-79517715D01*
X142931612Y-79517714D01*
X142931610Y-79517713D01*
X142874653Y-79488691D01*
X142749223Y-79424781D01*
X142554534Y-79361522D01*
X142379995Y-79333878D01*
X142352352Y-79329500D01*
X142147648Y-79329500D01*
X142123329Y-79333351D01*
X141945465Y-79361522D01*
X141750776Y-79424781D01*
X141568386Y-79517715D01*
X141402786Y-79638028D01*
X141258028Y-79782786D01*
X141137715Y-79948386D01*
X141044781Y-80130776D01*
X140981522Y-80325465D01*
X140949500Y-80527648D01*
X88400500Y-80527648D01*
X88400500Y-70174361D01*
X88420185Y-70107322D01*
X88436819Y-70086680D01*
X91176680Y-67346819D01*
X91238003Y-67313334D01*
X91264361Y-67310500D01*
X92999953Y-67310500D01*
X93066992Y-67330185D01*
X93087634Y-67346819D01*
X93142786Y-67401971D01*
X93264947Y-67490724D01*
X93308390Y-67522287D01*
X93399840Y-67568883D01*
X93401080Y-67569515D01*
X93451876Y-67617490D01*
X93468671Y-67685311D01*
X93446134Y-67751446D01*
X93401080Y-67790485D01*
X93308386Y-67837715D01*
X93142786Y-67958028D01*
X92998028Y-68102786D01*
X92877715Y-68268386D01*
X92784781Y-68450776D01*
X92721522Y-68645465D01*
X92689500Y-68847648D01*
X92689500Y-69052351D01*
X92721522Y-69254531D01*
X92784781Y-69449223D01*
X92810715Y-69500120D01*
X92873214Y-69622781D01*
X92877715Y-69631613D01*
X92998028Y-69797213D01*
X93142786Y-69941971D01*
X93257283Y-70025156D01*
X93308390Y-70062287D01*
X93396776Y-70107322D01*
X93401080Y-70109515D01*
X93451876Y-70157490D01*
X93468671Y-70225311D01*
X93446134Y-70291446D01*
X93401080Y-70330485D01*
X93308386Y-70377715D01*
X93142786Y-70498028D01*
X92998028Y-70642786D01*
X92877715Y-70808386D01*
X92784781Y-70990776D01*
X92721522Y-71185465D01*
X92689500Y-71387648D01*
X92689500Y-71592351D01*
X92721522Y-71794531D01*
X92784781Y-71989223D01*
X92826094Y-72070302D01*
X92873214Y-72162781D01*
X92877715Y-72171613D01*
X92998028Y-72337213D01*
X93142786Y-72481971D01*
X93257283Y-72565156D01*
X93308390Y-72602287D01*
X93399840Y-72648883D01*
X93401080Y-72649515D01*
X93451876Y-72697490D01*
X93468671Y-72765311D01*
X93446134Y-72831446D01*
X93401080Y-72870485D01*
X93308386Y-72917715D01*
X93142786Y-73038028D01*
X92998028Y-73182786D01*
X92877715Y-73348386D01*
X92784781Y-73530776D01*
X92721522Y-73725465D01*
X92689500Y-73927648D01*
X92689500Y-74132351D01*
X92721522Y-74334531D01*
X92784781Y-74529223D01*
X92826094Y-74610302D01*
X92873214Y-74702781D01*
X92877715Y-74711613D01*
X92998028Y-74877213D01*
X93142784Y-75021969D01*
X93179068Y-75048330D01*
X93221735Y-75103659D01*
X93227715Y-75173273D01*
X93195109Y-75235068D01*
X93134271Y-75269426D01*
X93119440Y-75271938D01*
X93082519Y-75275907D01*
X92947671Y-75326202D01*
X92947664Y-75326206D01*
X92832455Y-75412452D01*
X92832452Y-75412455D01*
X92746206Y-75527664D01*
X92746202Y-75527671D01*
X92695908Y-75662517D01*
X92689501Y-75722116D01*
X92689501Y-75722123D01*
X92689500Y-75722135D01*
X92689500Y-77417870D01*
X92689501Y-77417872D01*
X92695908Y-77477483D01*
X92746202Y-77612328D01*
X92746206Y-77612335D01*
X92832452Y-77727544D01*
X92832455Y-77727547D01*
X92947664Y-77813793D01*
X92947671Y-77813797D01*
X93082517Y-77864091D01*
X93082516Y-77864091D01*
X93089444Y-77864835D01*
X93142127Y-77870500D01*
X94837872Y-77870499D01*
X94897483Y-77864091D01*
X95032331Y-77813796D01*
X95147546Y-77727546D01*
X95233796Y-77612331D01*
X95284091Y-77477483D01*
X95290500Y-77417873D01*
X95290499Y-75722128D01*
X95284091Y-75662517D01*
X95280417Y-75652667D01*
X95233797Y-75527671D01*
X95233793Y-75527664D01*
X95147547Y-75412455D01*
X95147544Y-75412452D01*
X95032335Y-75326206D01*
X95032328Y-75326202D01*
X94897482Y-75275908D01*
X94897483Y-75275908D01*
X94860560Y-75271939D01*
X94796009Y-75245201D01*
X94756160Y-75187809D01*
X94753667Y-75117984D01*
X94789319Y-75057895D01*
X94800930Y-75048331D01*
X94837219Y-75021966D01*
X94981966Y-74877219D01*
X94981968Y-74877215D01*
X94981971Y-74877213D01*
X95085115Y-74735245D01*
X95102287Y-74711610D01*
X95195220Y-74529219D01*
X95258477Y-74334534D01*
X95258476Y-74334534D01*
X95258478Y-74334531D01*
X95290500Y-74132351D01*
X95290500Y-73927648D01*
X95258477Y-73725465D01*
X95195218Y-73530776D01*
X95161503Y-73464607D01*
X95102287Y-73348390D01*
X95089215Y-73330398D01*
X94981971Y-73182786D01*
X94837213Y-73038028D01*
X94671614Y-72917715D01*
X94651856Y-72907648D01*
X94578917Y-72870483D01*
X94528123Y-72822511D01*
X94511328Y-72754690D01*
X94533865Y-72688555D01*
X94578917Y-72649516D01*
X94671610Y-72602287D01*
X94773506Y-72528256D01*
X94837213Y-72481971D01*
X94837215Y-72481968D01*
X94837219Y-72481966D01*
X94981966Y-72337219D01*
X94981968Y-72337215D01*
X94981971Y-72337213D01*
X95085115Y-72195245D01*
X95102287Y-72171610D01*
X95195220Y-71989219D01*
X95258477Y-71794534D01*
X95258476Y-71794534D01*
X95258478Y-71794531D01*
X95290500Y-71592351D01*
X95290500Y-71387648D01*
X95258477Y-71185465D01*
X95195218Y-70990776D01*
X95161503Y-70924607D01*
X95102287Y-70808390D01*
X95089215Y-70790398D01*
X94981971Y-70642786D01*
X94837213Y-70498028D01*
X94671614Y-70377715D01*
X94651856Y-70367648D01*
X94578917Y-70330483D01*
X94528123Y-70282511D01*
X94511328Y-70214690D01*
X94533865Y-70148555D01*
X94578917Y-70109516D01*
X94671610Y-70062287D01*
X94722717Y-70025156D01*
X94837213Y-69941971D01*
X94837215Y-69941968D01*
X94837219Y-69941966D01*
X94981966Y-69797219D01*
X94981968Y-69797215D01*
X94981971Y-69797213D01*
X95050561Y-69702805D01*
X95102287Y-69631610D01*
X95195220Y-69449219D01*
X95258477Y-69254534D01*
X95258476Y-69254534D01*
X95258478Y-69254531D01*
X95290500Y-69052351D01*
X95290500Y-68847648D01*
X95258477Y-68645465D01*
X95195218Y-68450776D01*
X95161503Y-68384607D01*
X95102287Y-68268390D01*
X95094556Y-68257749D01*
X94981971Y-68102786D01*
X94837213Y-67958028D01*
X94671614Y-67837715D01*
X94651856Y-67827648D01*
X94578917Y-67790483D01*
X94528123Y-67742511D01*
X94511328Y-67674690D01*
X94533865Y-67608555D01*
X94578917Y-67569516D01*
X94671610Y-67522287D01*
X94715053Y-67490724D01*
X94837213Y-67401971D01*
X94837215Y-67401968D01*
X94837219Y-67401966D01*
X94981966Y-67257219D01*
X94981968Y-67257215D01*
X94981971Y-67257213D01*
X95034732Y-67184590D01*
X95102287Y-67091610D01*
X95195220Y-66909219D01*
X95258477Y-66714534D01*
X95258476Y-66714534D01*
X95258478Y-66714531D01*
X95290500Y-66512351D01*
X95290500Y-66307648D01*
X95258477Y-66105465D01*
X95195218Y-65910776D01*
X95161503Y-65844607D01*
X95102287Y-65728390D01*
X95077690Y-65694535D01*
X94981971Y-65562786D01*
X94837213Y-65418028D01*
X94671613Y-65297715D01*
X94671612Y-65297714D01*
X94671610Y-65297713D01*
X94580449Y-65251264D01*
X94489223Y-65204781D01*
X94294534Y-65141522D01*
X94119995Y-65113878D01*
X94092352Y-65109500D01*
X93887648Y-65109500D01*
X93863329Y-65113351D01*
X93685465Y-65141522D01*
X93490776Y-65204781D01*
X93308386Y-65297715D01*
X93142786Y-65418028D01*
X93142782Y-65418032D01*
X93087634Y-65473181D01*
X93026311Y-65506666D01*
X92999953Y-65509500D01*
X90751306Y-65509500D01*
X90681590Y-65523368D01*
X90681589Y-65523368D01*
X90577341Y-65544103D01*
X90577332Y-65544106D01*
X90413457Y-65611984D01*
X90413456Y-65611985D01*
X90289914Y-65694534D01*
X90289913Y-65694535D01*
X90265961Y-65710538D01*
X90265960Y-65710539D01*
X86800540Y-69175958D01*
X86800539Y-69175959D01*
X86764098Y-69230499D01*
X86764097Y-69230500D01*
X86701985Y-69323455D01*
X86668046Y-69405393D01*
X86634107Y-69487327D01*
X86634106Y-69487331D01*
X86634105Y-69487334D01*
X86601849Y-69649500D01*
X86599500Y-69661309D01*
X84437925Y-69661309D01*
X86608506Y-67490727D01*
X86608511Y-67490724D01*
X86618714Y-67480520D01*
X86618716Y-67480520D01*
X86730520Y-67368716D01*
X86784110Y-67275894D01*
X86809577Y-67231785D01*
X86850500Y-67079057D01*
X86850500Y-66920943D01*
X86850500Y-61420943D01*
X86844755Y-61399500D01*
X86809577Y-61268215D01*
X86780639Y-61218095D01*
X86730520Y-61131284D01*
X86618716Y-61019480D01*
X86618715Y-61019479D01*
X86614385Y-61015149D01*
X86614374Y-61015139D01*
X84461416Y-58862181D01*
X84427931Y-58800858D01*
X84432915Y-58731166D01*
X84474787Y-58675233D01*
X84540251Y-58650816D01*
X84549097Y-58650500D01*
X92525638Y-58650500D01*
X92555078Y-58659144D01*
X92585065Y-58665668D01*
X92590080Y-58669422D01*
X92592677Y-58670185D01*
X92613319Y-58686819D01*
X92653181Y-58726681D01*
X92686666Y-58788004D01*
X92689500Y-58814362D01*
X92689500Y-58892351D01*
X92721522Y-59094534D01*
X92784781Y-59289223D01*
X92848691Y-59414653D01*
X92864661Y-59445995D01*
X92877715Y-59471613D01*
X92998028Y-59637213D01*
X93142786Y-59781971D01*
X93297749Y-59894556D01*
X93308390Y-59902287D01*
X93424607Y-59961503D01*
X93490776Y-59995218D01*
X93490778Y-59995218D01*
X93490781Y-59995220D01*
X93595137Y-60029127D01*
X93685465Y-60058477D01*
X93786557Y-60074488D01*
X93887648Y-60090500D01*
X93887649Y-60090500D01*
X94092351Y-60090500D01*
X94092352Y-60090500D01*
X94294534Y-60058477D01*
X94489219Y-59995220D01*
X94671610Y-59902287D01*
X94773507Y-59828255D01*
X94837213Y-59781971D01*
X94837215Y-59781968D01*
X94837219Y-59781966D01*
X94981966Y-59637219D01*
X94981968Y-59637215D01*
X94981971Y-59637213D01*
X95050561Y-59542805D01*
X95102287Y-59471610D01*
X95195220Y-59289219D01*
X95258477Y-59094534D01*
X95290500Y-58892352D01*
X95290500Y-58687648D01*
X95284616Y-58650500D01*
X95258477Y-58485465D01*
X95228758Y-58393999D01*
X95195220Y-58290781D01*
X95195218Y-58290778D01*
X95195218Y-58290776D01*
X95137017Y-58176552D01*
X95102287Y-58108390D01*
X95032741Y-58012667D01*
X94981971Y-57942786D01*
X94837213Y-57798028D01*
X94671613Y-57677715D01*
X94671612Y-57677714D01*
X94671610Y-57677713D01*
X94614653Y-57648691D01*
X94489223Y-57584781D01*
X94294534Y-57521522D01*
X94119995Y-57493878D01*
X94092352Y-57489500D01*
X94092351Y-57489500D01*
X94014362Y-57489500D01*
X93947323Y-57469815D01*
X93926681Y-57453181D01*
X93524039Y-57050538D01*
X93524034Y-57050534D01*
X93473905Y-57017040D01*
X93452601Y-57002805D01*
X93376547Y-56951987D01*
X93294606Y-56918046D01*
X93288903Y-56915683D01*
X93288898Y-56915681D01*
X93212666Y-56884105D01*
X93212658Y-56884103D01*
X93038696Y-56849500D01*
X93038692Y-56849500D01*
X93038691Y-56849500D01*
X81911309Y-56849500D01*
X81911306Y-56849500D01*
X81737341Y-56884103D01*
X81737332Y-56884106D01*
X81573459Y-56951983D01*
X81573446Y-56951990D01*
X81425965Y-57050535D01*
X81425961Y-57050538D01*
X81300538Y-57175961D01*
X81300535Y-57175965D01*
X81201990Y-57323446D01*
X81201983Y-57323459D01*
X81134106Y-57487332D01*
X81134103Y-57487341D01*
X81099500Y-57661304D01*
X81099500Y-57838695D01*
X81134103Y-58012658D01*
X81134106Y-58012667D01*
X81201983Y-58176540D01*
X81201990Y-58176552D01*
X81269546Y-58277656D01*
X81290424Y-58344333D01*
X81281005Y-58393999D01*
X81230264Y-58516498D01*
X81230261Y-58516510D01*
X81199500Y-58671153D01*
X81199500Y-58828846D01*
X81230261Y-58983489D01*
X81230264Y-58983501D01*
X81290602Y-59129172D01*
X81290609Y-59129185D01*
X81325304Y-59181109D01*
X81346182Y-59247786D01*
X81327698Y-59315167D01*
X81325304Y-59318891D01*
X81290609Y-59370814D01*
X81290602Y-59370827D01*
X81230264Y-59516498D01*
X81230261Y-59516510D01*
X81199500Y-59671153D01*
X81199500Y-59828846D01*
X81230261Y-59983489D01*
X81230264Y-59983501D01*
X81290602Y-60129172D01*
X81290609Y-60129185D01*
X81378210Y-60260288D01*
X81378213Y-60260292D01*
X81489707Y-60371786D01*
X81489711Y-60371789D01*
X81620814Y-60459390D01*
X81620827Y-60459397D01*
X81766498Y-60519735D01*
X81766503Y-60519737D01*
X81831147Y-60532595D01*
X81921849Y-60550638D01*
X81983760Y-60583023D01*
X81985339Y-60584574D01*
X83613181Y-62212416D01*
X83646666Y-62273739D01*
X83649500Y-62300097D01*
X83649500Y-65199902D01*
X83629815Y-65266941D01*
X83613181Y-65287583D01*
X76537584Y-72363181D01*
X76510656Y-72377884D01*
X76484838Y-72394477D01*
X76478637Y-72395368D01*
X76476261Y-72396666D01*
X76449903Y-72399500D01*
X76229602Y-72399500D01*
X76162563Y-72379815D01*
X76119117Y-72331795D01*
X76112284Y-72318385D01*
X75991971Y-72152786D01*
X75847213Y-72008028D01*
X75681613Y-71887715D01*
X75681612Y-71887714D01*
X75681610Y-71887713D01*
X75608546Y-71850485D01*
X75499223Y-71794781D01*
X75304534Y-71731522D01*
X75129995Y-71703878D01*
X75102352Y-71699500D01*
X74897648Y-71699500D01*
X74873329Y-71703351D01*
X74695465Y-71731522D01*
X74500776Y-71794781D01*
X74318386Y-71887715D01*
X74152786Y-72008028D01*
X74008028Y-72152786D01*
X73887715Y-72318386D01*
X73794781Y-72500776D01*
X73731522Y-72695465D01*
X73699500Y-72897648D01*
X70250500Y-72897648D01*
X70250500Y-40907648D01*
X92689500Y-40907648D01*
X92689500Y-41112351D01*
X92721522Y-41314534D01*
X92784781Y-41509223D01*
X92877715Y-41691613D01*
X92998028Y-41857213D01*
X93142786Y-42001971D01*
X93297749Y-42114556D01*
X93308390Y-42122287D01*
X93399840Y-42168883D01*
X93401080Y-42169515D01*
X93451876Y-42217490D01*
X93468671Y-42285311D01*
X93446134Y-42351446D01*
X93401080Y-42390485D01*
X93308386Y-42437715D01*
X93142786Y-42558028D01*
X92998028Y-42702786D01*
X92877715Y-42868386D01*
X92784781Y-43050776D01*
X92721522Y-43245465D01*
X92689500Y-43447648D01*
X92689500Y-43652351D01*
X92721522Y-43854534D01*
X92784781Y-44049223D01*
X92810715Y-44100120D01*
X92862995Y-44202725D01*
X92877715Y-44231613D01*
X92998028Y-44397213D01*
X93142786Y-44541971D01*
X93297749Y-44654556D01*
X93308390Y-44662287D01*
X93399840Y-44708883D01*
X93401080Y-44709515D01*
X93451876Y-44757490D01*
X93468671Y-44825311D01*
X93446134Y-44891446D01*
X93401080Y-44930485D01*
X93308386Y-44977715D01*
X93142786Y-45098028D01*
X92998028Y-45242786D01*
X92877715Y-45408386D01*
X92784781Y-45590776D01*
X92721522Y-45785465D01*
X92689500Y-45987648D01*
X92689500Y-46192351D01*
X92721522Y-46394534D01*
X92784781Y-46589223D01*
X92826094Y-46670302D01*
X92873320Y-46762989D01*
X92877715Y-46771613D01*
X92998028Y-46937213D01*
X93142786Y-47081971D01*
X93297749Y-47194556D01*
X93308390Y-47202287D01*
X93399840Y-47248883D01*
X93401080Y-47249515D01*
X93451876Y-47297490D01*
X93468671Y-47365311D01*
X93446134Y-47431446D01*
X93401080Y-47470485D01*
X93308386Y-47517715D01*
X93142786Y-47638028D01*
X92998028Y-47782786D01*
X92877715Y-47948386D01*
X92784781Y-48130776D01*
X92721522Y-48325465D01*
X92689500Y-48527648D01*
X92689500Y-48732351D01*
X92721522Y-48934534D01*
X92784781Y-49129223D01*
X92826094Y-49210302D01*
X92873320Y-49302989D01*
X92877715Y-49311613D01*
X92998028Y-49477213D01*
X93142786Y-49621971D01*
X93297749Y-49734556D01*
X93308390Y-49742287D01*
X93399840Y-49788883D01*
X93401080Y-49789515D01*
X93451876Y-49837490D01*
X93468671Y-49905311D01*
X93446134Y-49971446D01*
X93401080Y-50010485D01*
X93308386Y-50057715D01*
X93142786Y-50178028D01*
X92998028Y-50322786D01*
X92877715Y-50488386D01*
X92784781Y-50670776D01*
X92721522Y-50865465D01*
X92689500Y-51067648D01*
X92689500Y-51272351D01*
X92721522Y-51474534D01*
X92784781Y-51669223D01*
X92826094Y-51750302D01*
X92873320Y-51842989D01*
X92877715Y-51851613D01*
X92998028Y-52017213D01*
X93142786Y-52161971D01*
X93297749Y-52274556D01*
X93308390Y-52282287D01*
X93399840Y-52328883D01*
X93401080Y-52329515D01*
X93451876Y-52377490D01*
X93468671Y-52445311D01*
X93446134Y-52511446D01*
X93401080Y-52550485D01*
X93308386Y-52597715D01*
X93142786Y-52718028D01*
X92998028Y-52862786D01*
X92877715Y-53028386D01*
X92784781Y-53210776D01*
X92721522Y-53405465D01*
X92689500Y-53607648D01*
X92689500Y-53812351D01*
X92721522Y-54014534D01*
X92784781Y-54209223D01*
X92826094Y-54290302D01*
X92873320Y-54382989D01*
X92877715Y-54391613D01*
X92998028Y-54557213D01*
X93142786Y-54701971D01*
X93297749Y-54814556D01*
X93308390Y-54822287D01*
X93401080Y-54869515D01*
X93490776Y-54915218D01*
X93490778Y-54915218D01*
X93490781Y-54915220D01*
X93595137Y-54949127D01*
X93685465Y-54978477D01*
X93704697Y-54981523D01*
X93887648Y-55010500D01*
X93887649Y-55010500D01*
X94092351Y-55010500D01*
X94092352Y-55010500D01*
X94294534Y-54978477D01*
X94489219Y-54915220D01*
X94671610Y-54822287D01*
X94773507Y-54748255D01*
X94837213Y-54701971D01*
X94837215Y-54701968D01*
X94837219Y-54701966D01*
X94981966Y-54557219D01*
X94981968Y-54557215D01*
X94981971Y-54557213D01*
X95050561Y-54462805D01*
X95102287Y-54391610D01*
X95195220Y-54209219D01*
X95258477Y-54014534D01*
X95290500Y-53812352D01*
X95290500Y-53607648D01*
X95258477Y-53405465D01*
X95195218Y-53210776D01*
X95161503Y-53144607D01*
X95102287Y-53028390D01*
X95085219Y-53004898D01*
X94981971Y-52862786D01*
X94837213Y-52718028D01*
X94671614Y-52597715D01*
X94665006Y-52594348D01*
X94578917Y-52550483D01*
X94528123Y-52502511D01*
X94511328Y-52434690D01*
X94533865Y-52368555D01*
X94578917Y-52329516D01*
X94671610Y-52282287D01*
X94773506Y-52208256D01*
X94837213Y-52161971D01*
X94837215Y-52161968D01*
X94837219Y-52161966D01*
X94981966Y-52017219D01*
X94981968Y-52017215D01*
X94981971Y-52017213D01*
X95050561Y-51922805D01*
X95102287Y-51851610D01*
X95195220Y-51669219D01*
X95258477Y-51474534D01*
X95290500Y-51272352D01*
X95290500Y-51067648D01*
X95258477Y-50865465D01*
X95195218Y-50670776D01*
X95161503Y-50604607D01*
X95102287Y-50488390D01*
X95085219Y-50464898D01*
X94981971Y-50322786D01*
X94837213Y-50178028D01*
X94671614Y-50057715D01*
X94665006Y-50054348D01*
X94578917Y-50010483D01*
X94528123Y-49962511D01*
X94511328Y-49894690D01*
X94533865Y-49828555D01*
X94578917Y-49789516D01*
X94671610Y-49742287D01*
X94773506Y-49668256D01*
X94837213Y-49621971D01*
X94837215Y-49621968D01*
X94837219Y-49621966D01*
X94981966Y-49477219D01*
X94981968Y-49477215D01*
X94981971Y-49477213D01*
X95050561Y-49382805D01*
X95102287Y-49311610D01*
X95195220Y-49129219D01*
X95258477Y-48934534D01*
X95290500Y-48732352D01*
X95290500Y-48527648D01*
X95258477Y-48325465D01*
X95195218Y-48130776D01*
X95161503Y-48064607D01*
X95102287Y-47948390D01*
X95085219Y-47924898D01*
X94981971Y-47782786D01*
X94837213Y-47638028D01*
X94671614Y-47517715D01*
X94665006Y-47514348D01*
X94578917Y-47470483D01*
X94528123Y-47422511D01*
X94511328Y-47354690D01*
X94533865Y-47288555D01*
X94578917Y-47249516D01*
X94671610Y-47202287D01*
X94773506Y-47128256D01*
X94837213Y-47081971D01*
X94837215Y-47081968D01*
X94837219Y-47081966D01*
X94981966Y-46937219D01*
X94981968Y-46937215D01*
X94981971Y-46937213D01*
X95050561Y-46842805D01*
X95102287Y-46771610D01*
X95195220Y-46589219D01*
X95258477Y-46394534D01*
X95290500Y-46192352D01*
X95290500Y-45987648D01*
X95258477Y-45785465D01*
X95195218Y-45590776D01*
X95161503Y-45524607D01*
X95102287Y-45408390D01*
X95085219Y-45384898D01*
X94981971Y-45242786D01*
X94837213Y-45098028D01*
X94671614Y-44977715D01*
X94665006Y-44974348D01*
X94578917Y-44930483D01*
X94528123Y-44882511D01*
X94511328Y-44814690D01*
X94533865Y-44748555D01*
X94578917Y-44709516D01*
X94671610Y-44662287D01*
X94773506Y-44588256D01*
X94837213Y-44541971D01*
X94837215Y-44541968D01*
X94837219Y-44541966D01*
X94981966Y-44397219D01*
X94981968Y-44397215D01*
X94981971Y-44397213D01*
X95050561Y-44302805D01*
X95102287Y-44231610D01*
X95195220Y-44049219D01*
X95258477Y-43854534D01*
X95290500Y-43652352D01*
X95290500Y-43447648D01*
X95258477Y-43245466D01*
X95195220Y-43050781D01*
X95195218Y-43050778D01*
X95195218Y-43050776D01*
X95161503Y-42984607D01*
X95102287Y-42868390D01*
X95094556Y-42857749D01*
X94981971Y-42702786D01*
X94837213Y-42558028D01*
X94671614Y-42437715D01*
X94665006Y-42434348D01*
X94578917Y-42390483D01*
X94528123Y-42342511D01*
X94511328Y-42274690D01*
X94533865Y-42208555D01*
X94578917Y-42169516D01*
X94671610Y-42122287D01*
X94692770Y-42106913D01*
X94837213Y-42001971D01*
X94837215Y-42001968D01*
X94837219Y-42001966D01*
X94981966Y-41857219D01*
X94981968Y-41857215D01*
X94981971Y-41857213D01*
X95034732Y-41784590D01*
X95102287Y-41691610D01*
X95195220Y-41509219D01*
X95258477Y-41314534D01*
X95290500Y-41112352D01*
X95290500Y-40907648D01*
X95258477Y-40705466D01*
X95195220Y-40510781D01*
X95195218Y-40510778D01*
X95195218Y-40510776D01*
X95161503Y-40444607D01*
X95102287Y-40328390D01*
X95091686Y-40313799D01*
X94981971Y-40162786D01*
X94837213Y-40018028D01*
X94671613Y-39897715D01*
X94671612Y-39897714D01*
X94671610Y-39897713D01*
X94612149Y-39867416D01*
X94489223Y-39804781D01*
X94294534Y-39741522D01*
X94119995Y-39713878D01*
X94092352Y-39709500D01*
X93887648Y-39709500D01*
X93863329Y-39713351D01*
X93685465Y-39741522D01*
X93490776Y-39804781D01*
X93308386Y-39897715D01*
X93142786Y-40018028D01*
X92998028Y-40162786D01*
X92877715Y-40328386D01*
X92784781Y-40510776D01*
X92721522Y-40705465D01*
X92689500Y-40907648D01*
X70250500Y-40907648D01*
X70250500Y-37859568D01*
X164249320Y-37859568D01*
X164249320Y-38140431D01*
X164280762Y-38419494D01*
X164280765Y-38419512D01*
X164343259Y-38693317D01*
X164343263Y-38693329D01*
X164436020Y-38958411D01*
X164557873Y-39211442D01*
X164557875Y-39211445D01*
X164707297Y-39449248D01*
X164882404Y-39668825D01*
X165080995Y-39867416D01*
X165300572Y-40042523D01*
X165538375Y-40191945D01*
X165791412Y-40313801D01*
X165990500Y-40383465D01*
X166056490Y-40406556D01*
X166056502Y-40406560D01*
X166330311Y-40469055D01*
X166330317Y-40469055D01*
X166330325Y-40469057D01*
X166516367Y-40490018D01*
X166609389Y-40500499D01*
X166609392Y-40500500D01*
X166609395Y-40500500D01*
X166890248Y-40500500D01*
X166890249Y-40500499D01*
X167032875Y-40484429D01*
X167169314Y-40469057D01*
X167169319Y-40469056D01*
X167169329Y-40469055D01*
X167443138Y-40406560D01*
X167708228Y-40313801D01*
X167961265Y-40191945D01*
X168199068Y-40042523D01*
X168418645Y-39867416D01*
X168617236Y-39668825D01*
X168792343Y-39449248D01*
X168941765Y-39211445D01*
X169063621Y-38958408D01*
X169156380Y-38693318D01*
X169218875Y-38419509D01*
X169250320Y-38140425D01*
X169250320Y-37859575D01*
X169250319Y-37859568D01*
X201249500Y-37859568D01*
X201249500Y-38140431D01*
X201280942Y-38419494D01*
X201280945Y-38419512D01*
X201343439Y-38693317D01*
X201343443Y-38693329D01*
X201436200Y-38958411D01*
X201558053Y-39211442D01*
X201558055Y-39211445D01*
X201707477Y-39449248D01*
X201882584Y-39668825D01*
X202081175Y-39867416D01*
X202300752Y-40042523D01*
X202538555Y-40191945D01*
X202791592Y-40313801D01*
X202990680Y-40383465D01*
X203056670Y-40406556D01*
X203056682Y-40406560D01*
X203330491Y-40469055D01*
X203330497Y-40469055D01*
X203330505Y-40469057D01*
X203516547Y-40490018D01*
X203609569Y-40500499D01*
X203609572Y-40500500D01*
X203609575Y-40500500D01*
X203890428Y-40500500D01*
X203890429Y-40500499D01*
X204033055Y-40484429D01*
X204169494Y-40469057D01*
X204169499Y-40469056D01*
X204169509Y-40469055D01*
X204443318Y-40406560D01*
X204708408Y-40313801D01*
X204961445Y-40191945D01*
X205199248Y-40042523D01*
X205418825Y-39867416D01*
X205617416Y-39668825D01*
X205792523Y-39449248D01*
X205941945Y-39211445D01*
X206063801Y-38958408D01*
X206156560Y-38693318D01*
X206219055Y-38419509D01*
X206250500Y-38140425D01*
X206250500Y-37859575D01*
X206219055Y-37580491D01*
X206156560Y-37306682D01*
X206063801Y-37041592D01*
X205941945Y-36788555D01*
X205792523Y-36550752D01*
X205617416Y-36331175D01*
X205418825Y-36132584D01*
X205199248Y-35957477D01*
X204961445Y-35808055D01*
X204961442Y-35808053D01*
X204708411Y-35686200D01*
X204443329Y-35593443D01*
X204443317Y-35593439D01*
X204169512Y-35530945D01*
X204169494Y-35530942D01*
X203890431Y-35499500D01*
X203890425Y-35499500D01*
X203609575Y-35499500D01*
X203609568Y-35499500D01*
X203330505Y-35530942D01*
X203330487Y-35530945D01*
X203056682Y-35593439D01*
X203056670Y-35593443D01*
X202791588Y-35686200D01*
X202538557Y-35808053D01*
X202300753Y-35957476D01*
X202081175Y-36132583D01*
X201882583Y-36331175D01*
X201707476Y-36550753D01*
X201558053Y-36788557D01*
X201436200Y-37041588D01*
X201343443Y-37306670D01*
X201343439Y-37306682D01*
X201280945Y-37580487D01*
X201280942Y-37580505D01*
X201249500Y-37859568D01*
X169250319Y-37859568D01*
X169218875Y-37580491D01*
X169156380Y-37306682D01*
X169063621Y-37041592D01*
X168941765Y-36788555D01*
X168792343Y-36550752D01*
X168617236Y-36331175D01*
X168418645Y-36132584D01*
X168199068Y-35957477D01*
X167961265Y-35808055D01*
X167961262Y-35808053D01*
X167708231Y-35686200D01*
X167443149Y-35593443D01*
X167443137Y-35593439D01*
X167169332Y-35530945D01*
X167169314Y-35530942D01*
X166890251Y-35499500D01*
X166890245Y-35499500D01*
X166609395Y-35499500D01*
X166609388Y-35499500D01*
X166330325Y-35530942D01*
X166330307Y-35530945D01*
X166056502Y-35593439D01*
X166056490Y-35593443D01*
X165791408Y-35686200D01*
X165538377Y-35808053D01*
X165300573Y-35957476D01*
X165080995Y-36132583D01*
X164882403Y-36331175D01*
X164707296Y-36550753D01*
X164557873Y-36788557D01*
X164436020Y-37041588D01*
X164343263Y-37306670D01*
X164343259Y-37306682D01*
X164280765Y-37580487D01*
X164280762Y-37580505D01*
X164249320Y-37859568D01*
X70250500Y-37859568D01*
X70250500Y-33874500D01*
X70270185Y-33807461D01*
X70322989Y-33761706D01*
X70374500Y-33750500D01*
X209375500Y-33750500D01*
X209442539Y-33770185D01*
G37*
%TD.AperFunction*%
%TD*%
M02*
